<svg width="100" height="100" viewBox="0 0 100 100" fill="none" xmlns="http://www.w3.org/2000/svg">
<g clip-path="url(#clip0_2_389)">
<path d="M42.1331 46.3444L45.7378 49.9291L42.1331 53.5131H16.7583V65.455L1.28369 49.9291L16.7583 34.6638V46.3444H42.1331ZM53.287 15.8491H84.1184V46.6813H53.287V15.8491Z" fill="#932279"/>
<path d="M53.6233 42.1331L50.0393 45.7378L46.4553 42.1331V16.7583H34.5127L50.0393 1.28369L65.3039 16.7583H53.6233V42.1331ZM53.2871 53.287H84.1186V84.1191H53.2871V53.287Z" fill="#EFA724"/>
<path d="M57.8352 53.6233L54.2297 50.0393L57.8352 46.4553H83.2092V34.5127L98.6846 50.0393L83.2092 65.3039V53.6233H57.8352ZM15.8491 53.2871H46.6806V84.1193H15.8491V53.2871Z" fill="#262577"/>
<path d="M46.3444 57.8352L49.9284 54.2297L53.5131 57.8352V83.2099H65.455L49.9284 98.6846L34.6645 83.2099H46.3444V57.8352ZM15.8491 15.8491H46.6806V46.6813H15.8491V15.8491Z" fill="#9CCD2A"/>
<path d="M14.7476 14.7476H47.7817V47.7816H14.7476V14.7476ZM16.9495 45.5797H45.579V16.9502H16.9495V45.5797ZM52.1862 14.7476H85.2203V47.7816H52.1862V14.7476ZM54.3882 45.5797H83.0177V16.9502H54.3882V45.5797ZM52.1862 52.1862H85.2203V85.221H52.1862V52.1862ZM54.3882 83.0177H83.0177V54.3882H54.3882V83.0177ZM14.7476 52.1862H47.7817V85.221H14.7476V52.1862ZM16.9495 83.0177H45.579V54.3882H16.9495V83.0177Z" fill="white"/>
<path d="M23.5111 73.3429L0.151855 49.9837L23.5104 26.6252L46.8696 49.9837L23.5111 73.3429ZM3.26661 49.9837L23.5111 70.2282L43.7549 49.9837L23.5104 29.7399L3.26661 49.9837ZM49.9837 46.8696L26.6252 23.5111L49.9837 0.151855L73.3422 23.5111L49.9837 46.8696ZM29.7399 23.5111L49.9837 43.7549L70.2282 23.5111L49.9837 3.26661L29.7399 23.5111ZM76.457 73.3429L53.0984 49.9837L76.457 26.6252L99.8155 49.9837L76.457 73.3429ZM56.2125 49.9837L76.457 70.2282L96.7008 49.9837L76.457 29.7399L56.2125 49.9837ZM49.9837 99.8155L26.6252 76.457L49.9837 53.0984L73.3422 76.457L49.9837 99.8155ZM29.7399 76.457L49.9837 96.7008L70.2282 76.457L49.9837 56.2132L29.7399 76.457Z" fill="white"/>
</g>
<defs>
<clipPath id="clip0_2_389">
<rect width="100" height="100" fill="white"/>
</clipPath>
</defs>
</svg>
