<?xml version="1.0" ?><!DOCTYPE svg  PUBLIC '-//W3C//DTD SVG 1.1//EN'  'http://www.w3.org/Graphics/SVG/1.1/DTD/svg11.dtd'><svg enable-background="new 0 0 100 100" height="100px" version="1.1" viewBox="0 0 100 100" width="100px" xml:space="preserve" xmlns="http://www.w3.org/2000/svg" xmlns:xlink="http://www.w3.org/1999/xlink"><g id="Layer_1"><g><polygon fill="#B7CA9D" points="81.819,63.545 50.011,58.872 18.181,63.551 49.991,74.833   "/><polygon fill="#759C3E" points="65.901,61.951 40.476,67.916 40.476,14 65.901,23.91   "/><polygon fill="#759C3E" points="48.964,61.337 29.927,64.681 29.927,25.858 48.964,30.14   "/><polygon fill="#4B612C" points="43.181,68.666 49.997,70.711 49.991,54.937 43.181,54.201   "/><polygon fill="#4B612C" points="40.476,67.855 33.056,65.629 33.056,17.711 40.476,14.001   "/><polygon fill="#4B612C" points="49.991,74.833 18.181,63.551 18.181,70.095 49.991,86   "/><polygon fill="#759C3E" points="81.819,70.087 49.991,86 49.991,74.833 81.819,63.545   "/><polygon fill="#4B612C" points="24.55,63 29.927,64.613 29.927,25.857 24.55,27.914   "/><polygon fill="#759C3E" points="72.88,52.703 49.991,54.936 49.997,70.711 72.88,63.822   "/><polygon fill="#B7CA9D" points="72.88,52.703 65.167,52.703 43.181,54.201 49.991,54.936   "/></g></g></svg>