<svg width="100" height="100" viewBox="0 0 100 100" fill="none" xmlns="http://www.w3.org/2000/svg">
<path d="M18.4438 85.0031L11.425 6.25H88.575L81.5469 84.9906L49.9532 93.75L18.4438 85.0031Z" fill="#1572B6"/>
<path d="M50 87.0561L75.5313 79.9779L81.5375 12.6904H50V87.0561Z" fill="#33A9DC"/>
<path d="M50 41.2219H62.7813L63.6625 31.3313H50V21.6719H50.0344H74.2188L73.9875 24.2625L71.6156 50.8813H50V41.2219Z" fill="white"/>
<path d="M50.0594 66.3063L50.0156 66.3188L39.2594 63.4126L38.5719 55.7095H33.3438H28.875L30.2281 70.8751L50.0125 76.3688L50.0594 76.3563V66.3063Z" fill="#EBEBEB"/>
<path d="M61.9593 50.4717L60.7968 63.4061L50.0249 66.3123V76.3623L69.8249 70.8748L69.9718 69.2436L71.6499 50.4717H61.9593Z" fill="white"/>
<path d="M50.0343 21.6719V27.6719V31.3062V31.3313H26.7343H26.703L26.5093 29.1594L26.0687 24.2625L25.8374 21.6719H50.0343Z" fill="#EBEBEB"/>
<path d="M50 41.2217V47.2217V50.8561V50.8811H39.4094H39.3781L39.1844 48.7092L38.7469 43.8123L38.5156 41.2217H50Z" fill="#EBEBEB"/>
</svg>
