<svg width="100" height="100" viewBox="0 0 100 100" fill="none" xmlns="http://www.w3.org/2000/svg">
<path d="M77.1374 28.35L78.0749 26.9313L79.7124 27.925L80.4374 28.4438C82.1874 29.7938 85.8687 33.2438 86.6624 38.9688C88.0562 38.7188 89.4624 38.5938 90.8687 38.5938C94.2062 38.5938 96.4499 39.3687 97.7249 40.0125L98.3812 40.3688L98.8062 40.65L99.9999 41.625L99.5874 42.875C98.9463 44.5886 97.9445 46.1446 96.6499 47.4375C94.8374 49.3063 91.6499 51.5125 86.5937 51.8L85.4812 51.8313H84.5562C82.2437 57.9375 79.1374 64.8188 73.9187 70.9938C70.8222 74.6631 67.1492 77.8042 63.0437 80.2938C58.1218 83.2138 52.7319 85.2607 47.1124 86.3437C43.0874 87.125 38.9999 87.5125 34.9062 87.5C25.8437 87.5 17.8437 85.7 12.9249 82.55C8.53119 79.7438 5.15619 75.1625 2.88744 68.9438C0.901978 63.2613 -0.0731632 57.2751 0.00618997 51.2563C-0.00409342 50.4846 0.262694 49.7348 0.75811 49.143C1.25353 48.5513 1.94472 48.1568 2.70619 48.0312L3.13119 48H69.0062L69.5812 47.9562L70.5124 47.8563C72.1124 47.6438 74.5499 47.1688 76.2624 46.1688C74.2124 42.775 73.6312 38.8062 74.5874 34.5812C74.9879 32.8189 75.6183 31.1168 76.4624 29.5188L77.1374 28.35ZM18.0624 36.15L18.3124 36.1937C18.4266 36.2365 18.5294 36.3049 18.6129 36.3938C18.6964 36.4827 18.7582 36.5896 18.7937 36.7063L18.8312 36.9563V45.175L18.7937 45.4313C18.7576 45.5485 18.6948 45.6559 18.6102 45.7448C18.5256 45.8337 18.4215 45.9018 18.3062 45.9437L18.0624 45.9812H9.23744C9.07296 45.979 8.91345 45.9246 8.78198 45.8257C8.65052 45.7268 8.55393 45.5887 8.50619 45.4313L8.46244 45.1813V36.95L8.50619 36.7C8.54145 36.5816 8.60389 36.473 8.68852 36.3829C8.77316 36.2929 8.87766 36.2238 8.99369 36.1813L9.23744 36.1437L18.0624 36.15ZM30.2312 36.15L30.4749 36.1937C30.5903 36.2357 30.6943 36.3038 30.7789 36.3927C30.8635 36.4816 30.9263 36.589 30.9624 36.7063L30.9999 36.9563V45.175L30.9562 45.4313C30.9201 45.5485 30.8573 45.6559 30.7727 45.7448C30.6881 45.8337 30.584 45.9018 30.4687 45.9437L30.2249 45.9812H21.3999C21.2357 45.9781 21.0766 45.9232 20.9454 45.8245C20.8141 45.7258 20.7173 45.5882 20.6687 45.4313L20.6249 45.1875V36.9563C20.6236 36.789 20.6739 36.6254 20.769 36.4879C20.8641 36.3503 20.9993 36.2454 21.1562 36.1875L21.3999 36.1437L30.2312 36.15ZM42.5812 36.15L42.8249 36.1937C42.9391 36.2365 43.0419 36.3049 43.1254 36.3938C43.2089 36.4827 43.2707 36.5896 43.3062 36.7063L43.3499 36.9563V45.175L43.3062 45.4313C43.2701 45.5485 43.2073 45.6559 43.1227 45.7448C43.0381 45.8337 42.934 45.9018 42.8187 45.9437L42.5749 45.9812H33.7499C33.5855 45.979 33.4259 45.9246 33.2945 45.8257C33.163 45.7268 33.0664 45.5887 33.0187 45.4313L32.9812 45.1813V36.95L33.0187 36.7C33.054 36.5816 33.1164 36.473 33.201 36.3829C33.2857 36.2929 33.3902 36.2238 33.5062 36.1813L33.7499 36.1437L42.5812 36.15ZM54.7812 36.15L55.0249 36.1937C55.1403 36.2357 55.2443 36.3038 55.3289 36.3927C55.4135 36.4816 55.4763 36.589 55.5124 36.7063L55.5562 36.9563V45.175C55.5575 45.3422 55.5072 45.5058 55.4121 45.6434C55.3171 45.781 55.1818 45.8859 55.0249 45.9437L54.7749 45.9812H45.9562C45.7917 45.979 45.6322 45.9246 45.5007 45.8257C45.3693 45.7268 45.2727 45.5887 45.2249 45.4313L45.1874 45.1813V36.95L45.2249 36.7C45.2602 36.5816 45.3226 36.473 45.4073 36.3829C45.4919 36.2929 45.5964 36.2238 45.7124 36.1813L45.9624 36.1437H54.7874L54.7812 36.15ZM67.0937 36.15L67.3374 36.1937C67.4528 36.2357 67.5568 36.3038 67.6414 36.3927C67.726 36.4816 67.7888 36.589 67.8249 36.7063L67.8624 36.9563V45.175C67.8638 45.3422 67.8135 45.5058 67.7184 45.6434C67.6233 45.781 67.4881 45.8859 67.3312 45.9437L67.0874 45.9812H58.2624C58.098 45.979 57.9384 45.9246 57.807 45.8257C57.6755 45.7268 57.5789 45.5887 57.5312 45.4313L57.4937 45.1813V36.95L57.5312 36.7C57.5665 36.5816 57.6289 36.473 57.7135 36.3829C57.7982 36.2929 57.9027 36.2238 58.0187 36.1813L58.2687 36.1437H67.0874L67.0937 36.15ZM30.2187 24.325L30.4687 24.3687C30.5822 24.4108 30.6846 24.4783 30.768 24.5661C30.8514 24.6538 30.9136 24.7595 30.9499 24.875L30.9937 25.1312V33.35C30.995 33.5172 30.9447 33.6808 30.8496 33.8184C30.7546 33.956 30.6193 34.0609 30.4624 34.1188L30.2187 34.1625H21.3999C21.2341 34.1585 21.0739 34.1018 20.9424 34.0007C20.811 33.8996 20.7151 33.7592 20.6687 33.6L20.6249 33.35V25.1312C20.6249 24.9651 20.6758 24.8029 20.7708 24.6665C20.8658 24.5302 21.0003 24.4263 21.1562 24.3687L21.3999 24.325H30.2187ZM42.5687 24.325L42.8187 24.3687C42.9322 24.4108 43.0346 24.4783 43.118 24.5661C43.2014 24.6538 43.2636 24.7595 43.2999 24.875L43.3437 25.1312V33.35C43.345 33.5172 43.2947 33.6808 43.1996 33.8184C43.1046 33.956 42.9693 34.0609 42.8124 34.1188L42.5687 34.1625H33.7499C33.5841 34.1585 33.4239 34.1018 33.2924 34.0007C33.161 33.8996 33.0651 33.7592 33.0187 33.6L32.9812 33.35V25.1312L33.0187 24.8812C33.0548 24.764 33.1176 24.6566 33.2022 24.5677C33.2868 24.4788 33.3908 24.4107 33.5062 24.3687L33.7499 24.325H42.5687ZM54.7749 24.325C55.1124 24.325 55.3999 24.5563 55.5062 24.875L55.5499 25.1312V33.35C55.5513 33.5172 55.501 33.6808 55.4059 33.8184C55.3108 33.956 55.1756 34.0609 55.0187 34.1188L54.7687 34.1625H45.9562C45.7904 34.1585 45.6301 34.1018 45.4987 34.0007C45.3672 33.8996 45.2713 33.7592 45.2249 33.6L45.1874 33.35V25.1312L45.2249 24.8812C45.261 24.764 45.3239 24.6566 45.4084 24.5677C45.493 24.4788 45.5971 24.4107 45.7124 24.3687L45.9624 24.325H54.7874H54.7749ZM54.7749 12.5C55.1124 12.5 55.3999 12.7313 55.5062 13.05L55.5499 13.3V21.525C55.5513 21.6922 55.501 21.8558 55.4059 21.9934C55.3108 22.131 55.1756 22.2359 55.0187 22.2937L54.7687 22.3312H45.9562C45.7917 22.329 45.6322 22.2746 45.5007 22.1757C45.3693 22.0768 45.2727 21.9387 45.2249 21.7812L45.1874 21.5312V13.3L45.2249 13.05C45.261 12.9327 45.3239 12.8254 45.4084 12.7364C45.493 12.6475 45.5971 12.5794 45.7124 12.5375L45.9562 12.5H54.7812H54.7749Z" fill="#2396ED"/>
</svg>
