<?xml version="1.0" ?><!DOCTYPE svg  PUBLIC '-//W3C//DTD SVG 1.1//EN'  'http://www.w3.org/Graphics/SVG/1.1/DTD/svg11.dtd'><svg enable-background="new 0 0 100 100" height="100px" version="1.1" viewBox="0 0 100 100" width="100px" xml:space="preserve" xmlns="http://www.w3.org/2000/svg" xmlns:xlink="http://www.w3.org/1999/xlink"><g id="Layer_1"><g><polygon fill="#99BCE3" points="79.808,62.657 49.999,58.951 20.192,62.657 49.999,71.601   "/><polygon fill="#1A476F" points="79.808,37.343 49.999,41.049 20.192,37.343 49.999,28.4   "/><polygon fill="#205B98" points="50,14 20.192,28.904 20.192,37.343 50,28.4   "/><polygon fill="#205B98" points="50,71.6 20.192,62.658 20.192,71.096 50,86   "/><polygon fill="#205B98" points="50,60.888 37.399,58.983 37.399,41.162 50,39.287   "/><polygon fill="#5294CF" points="50,14 79.808,28.904 79.808,37.343 50,28.4   "/><polygon fill="#5294CF" points="50,71.6 79.808,62.658 79.808,71.096 50,86   "/><polygon fill="#5294CF" points="50,60.888 62.601,58.983 62.601,41.162 50,39.287   "/></g></g></svg>