<svg width="100" height="100" viewBox="0 0 100 100" fill="none" xmlns="http://www.w3.org/2000/svg">
<g clip-path="url(#clip0_36_8)">
<path fill-rule="evenodd" clip-rule="evenodd" d="M11.5375 50.8344C11.6625 57.2875 12.4375 63.2781 13.8656 68.8031C15.2906 74.325 17.4906 79.1375 20.475 83.2344C23.4531 87.3281 27.3031 90.5562 32.0187 92.9156C36.7375 95.275 42.5094 96.4531 49.3313 96.4531C59.3938 96.4531 67.7375 93.8156 74.3813 88.5406C81.0219 83.2594 85.15 75.3531 86.7625 64.8H90.4875C89.1219 75.9719 84.7156 84.6281 77.2687 90.775C69.8187 96.9188 60.6313 99.9937 49.7063 99.9937C42.2594 100.119 35.8937 98.9375 30.6219 96.4531C25.3406 93.9719 21.0281 90.4625 17.6781 85.9312C14.325 81.4 11.8437 76.0625 10.2312 69.9188C8.61875 63.775 7.8125 57.1687 7.8125 50.0875C7.8125 42.1437 8.99062 35.0688 11.35 28.8625C13.7094 22.6563 16.8125 17.4062 20.6625 13.125C24.5 8.84375 28.9687 5.59375 34.0625 3.35625C39.1562 1.11875 44.3688 0 49.7063 0C57.1531 0 63.5812 1.42813 68.9781 4.28125C74.3781 7.1375 78.7844 10.925 82.1969 15.6406C85.6125 20.3594 88.0938 25.7594 89.6469 31.8406C91.1969 37.9188 91.85 44.2469 91.6 50.8313H11.5406L11.5375 50.8344ZM87.8812 47.1094C87.8812 41.275 87.0688 35.7187 85.4594 30.4437C83.8469 25.1687 81.4594 20.5438 78.2906 16.5688C75.125 12.6 71.1844 9.46562 66.4656 7.16875C61.7469 4.87187 56.2844 3.725 50.0781 3.725C44.8594 3.725 39.9906 4.71563 35.4594 6.70312C30.9281 8.69062 26.9594 11.5781 23.5437 15.3594C20.1312 19.1469 17.3687 23.7094 15.2562 29.0469C13.1469 34.3844 11.9063 40.4062 11.5375 47.1094H87.8812Z" fill="#A39595"/>
</g>
<defs>
<clipPath id="clip0_36_8">
<rect width="100" height="100" fill="white"/>
</clipPath>
</defs>
</svg>
