<svg width="100" height="100" viewBox="0 0 100 100" fill="none" xmlns="http://www.w3.org/2000/svg">
<g clip-path="url(#clip0_2_426)">
<path fill-rule="evenodd" clip-rule="evenodd" d="M49.9992 0C22.3971 0 0.0195695 22.3677 0 49.9661V88.6589C0.0146771 94.9252 5.09726 99.9984 11.3675 99.9984H50.0196C77.6252 99.9877 100 77.609 100 50.0012C100 22.3869 77.6139 0 49.9992 0ZM69.1472 23.2356C67.5677 23.2356 66.9937 22.9321 64.6794 22.9321C57.8468 22.9321 52.3049 28.4661 52.2933 35.2988V46.0618C52.2933 47.0262 53.0761 47.8078 54.0429 47.8078L62.18 47.8096C65.2115 47.8096 67.6611 50.2278 67.6611 53.2673C67.6628 56.3266 65.1863 58.7352 62.1223 58.7352H52.2931V71.1726C52.2931 84.1317 41.7867 94.6395 28.8272 94.6395C26.8611 94.6395 25.463 94.4172 23.6429 93.9421C20.989 93.2472 18.8204 91.071 18.8196 88.5401C18.8196 85.482 21.0401 83.2562 24.3595 83.2562C25.9395 83.2562 26.5123 83.5597 28.8274 83.5597C35.6597 83.5597 41.2016 78.0252 41.2139 71.1933V60.4297C41.2139 59.4646 40.4297 58.6834 39.4642 58.6834L31.327 58.6824C28.2951 58.6824 25.8456 56.264 25.8456 53.2243C25.844 50.1646 28.3204 47.7567 31.3847 47.7567H41.2125V35.3186C41.2125 22.3595 51.7204 11.8521 64.6794 11.8521C66.6456 11.8521 68.0436 12.074 69.8632 12.5499C72.5178 13.244 74.6859 15.4202 74.6875 17.9511C74.6875 21.0104 72.4667 23.2356 69.1472 23.2356Z" fill="#4F6DB1"/>
</g>
<defs>
<clipPath id="clip0_2_426">
<rect width="100" height="100" fill="white"/>
</clipPath>
</defs>
</svg>
