<svg width="100" height="100" viewBox="0 0 100 100" fill="none" xmlns="http://www.w3.org/2000/svg">
<g clip-path="url(#clip0_2_428)">
<path fill-rule="evenodd" clip-rule="evenodd" d="M49.9968 1.0415C22.3874 1.0415 0 23.5146 0 51.2428C0 73.4178 14.325 92.2329 34.1969 98.8716C36.6969 99.3328 37.6094 97.7828 37.6094 96.4525C37.6094 95.2603 37.5656 92.1042 37.5406 87.9158C23.6312 90.9496 20.6969 81.1861 20.6969 81.1861C18.425 75.3882 15.1469 73.8446 15.1469 73.8446C10.6063 70.7292 15.4906 70.7918 15.4906 70.7918C20.5062 71.1464 23.1468 75.9655 23.1468 75.9655C27.6093 83.6364 34.85 81.4214 37.7 80.1351C38.1531 76.891 39.4469 74.6792 40.875 73.4242C29.7719 72.1567 18.1 67.8522 18.1 48.6169C18.1 43.1359 20.0469 38.6556 23.2469 35.1449C22.7313 33.8743 21.0157 28.7729 23.7344 21.8612C23.7344 21.8612 27.9344 20.5121 37.4844 27.0065C41.475 25.8927 45.7501 25.3374 50.0032 25.3154C54.2501 25.3374 58.5281 25.8927 62.5219 27.0065C72.0656 20.5121 76.2563 21.8612 76.2563 21.8612C78.9844 28.7729 77.2687 33.8743 76.7531 35.1449C79.9594 38.6556 81.8938 43.1359 81.8938 48.6169C81.8938 67.8993 70.2031 72.1441 59.0656 73.3865C60.8594 74.9363 62.4594 77.9985 62.4594 82.6826C62.4594 89.3935 62.3969 94.8054 62.3969 96.4525C62.3969 97.7953 63.2969 99.3578 65.8344 98.8652C85.6875 92.214 100 73.4116 100 51.2428C100 23.5146 77.6124 1.0415 49.9968 1.0415Z" fill="#515A67"/>
</g>
<defs>
<clipPath id="clip0_2_428">
<rect width="100" height="100" fill="white"/>
</clipPath>
</defs>
</svg>
