<svg width="100" height="100" viewBox="0 0 100 100" fill="none" xmlns="http://www.w3.org/2000/svg">
<path d="M93.5939 55.65L88.6877 40.9375L78.9877 11.75C78.8728 11.4196 78.6573 11.1333 78.3715 10.9316C78.0857 10.7298 77.7438 10.6226 77.3939 10.625C77.0451 10.6239 76.7047 10.7317 76.4201 10.9334C76.1355 11.1351 75.921 11.4206 75.8064 11.75L66.1064 40.9188H33.8877L24.1877 11.7438C24.0729 11.415 23.8581 11.1303 23.5735 10.9297C23.2888 10.7291 22.9485 10.6225 22.6002 10.625C22.2512 10.623 21.9103 10.7304 21.6255 10.9322C21.3407 11.134 21.1264 11.4201 21.0127 11.75L11.3252 40.9188L6.42519 55.65C6.20833 56.3064 6.20854 57.0151 6.42578 57.6714C6.64303 58.3276 7.06576 58.8965 7.63144 59.2938L50.0064 89.3688L92.3689 59.2938C92.9372 58.8984 93.3631 58.3306 93.5837 57.6744C93.8043 57.0182 93.8079 56.3084 93.5939 55.65Z" fill="#FC6D26"/>
<path d="M49.9998 89.3501L66.1123 40.9126H33.8936L49.9998 89.3501Z" fill="#E24329"/>
<path d="M49.9998 89.3501L33.8811 40.9126H11.3311L49.9998 89.3501Z" fill="#FC6D26"/>
<path d="M11.3125 40.9312L6.41249 55.6437C6.19563 56.3 6.19584 57.0088 6.41309 57.665C6.63033 58.3212 7.05307 58.8901 7.61874 59.2874L50 89.3749L11.3125 40.9374V40.9312Z" fill="#FCA326"/>
<path d="M11.3252 40.9315H33.9002L24.1877 11.7627C24.0732 11.4333 23.8586 11.1478 23.574 10.9461C23.2895 10.7444 22.949 10.6366 22.6002 10.6377C22.2503 10.6353 21.9085 10.7425 21.6226 10.9443C21.3368 11.146 21.1213 11.4323 21.0064 11.7627L11.3252 40.9315Z" fill="#E24329"/>
<path d="M50 89.3501L66.1125 40.9126H88.7L50 89.3501Z" fill="#FC6D26"/>
<path d="M88.6875 40.9312L93.5812 55.6437C93.7991 56.2999 93.7994 57.009 93.5821 57.6655C93.3648 58.3219 92.9414 58.8908 92.375 59.2874L50 89.3499L88.675 40.9312H88.6875Z" fill="#FCA326"/>
<path d="M88.6875 40.931H66.125L75.8187 11.7623C75.9328 11.4313 76.1481 11.1445 76.4341 10.9426C76.7201 10.7407 77.0624 10.6339 77.4125 10.6373C78.1312 10.6373 78.7688 11.0935 79 11.7623L88.7 40.931H88.6875Z" fill="#E24329"/>
</svg>
