<svg width="100" height="100" viewBox="0 0 100 100" fill="none" xmlns="http://www.w3.org/2000/svg">
<g clip-path="url(#clip0_2_444)">
<path fill-rule="evenodd" clip-rule="evenodd" d="M85.1774 0H13.1738C8.20476 0 4.16675 4.02695 4.16675 9.00703V91.0013C4.16675 95.973 8.20476 100 13.1738 100H85.1774C90.1478 100 94.1734 95.973 94.1734 91.0013V9.00703C94.1734 4.02695 90.1478 0 85.1774 0ZM89.1726 91.0013C89.1726 93.2091 87.3839 94.9964 85.1774 94.9964H13.1738C10.9687 94.9964 9.16758 93.2091 9.16758 91.0013V9.00703C9.16758 6.79089 10.9687 5.00083 13.1738 5.00083H85.1774C87.3839 5.00083 89.1726 6.79089 89.1726 9.00703V91.0013ZM26.6683 85.0057L37.926 75.0012L26.6683 64.9996V85.0057ZM67.324 44.4678C65.3001 42.4329 61.6052 40.0023 55.4257 40.0023C48.6459 40.0023 41.6627 41.7689 36.6716 43.386V15.0051H26.6685V58.3692L33.7375 55.1667C33.8551 55.1141 45.2512 50.0054 55.4257 50.0054C60.5013 50.0054 61.6259 52.7998 61.6799 55.1349V85.0057H71.6719V55.0062C71.6829 54.3643 71.6193 48.8157 67.324 44.4678ZM54.1721 31.2517H64.1752C68.6946 26.1319 70.9979 20.6814 71.673 15.0041H61.6796C60.566 20.6704 58.1023 26.089 54.1721 31.2517Z" fill="#6762A6"/>
</g>
<defs>
<clipPath id="clip0_2_444">
<rect width="100" height="100" fill="white"/>
</clipPath>
</defs>
</svg>
