<svg width="100" height="100" viewBox="0 0 100 100" fill="none" xmlns="http://www.w3.org/2000/svg">
<path d="M84.6531 49.3313C84.6531 47.1715 83.7951 45.1001 82.2679 43.5728C80.7406 42.0456 78.6692 41.1876 76.5094 41.1876C76.2187 41.1876 75.9344 41.2032 75.6531 41.2313L86.8406 8.24072H39.3031L50.4719 41.2032C50.3094 41.2032 50.1437 41.1876 49.9781 41.1876C48.0358 41.1894 46.1581 41.8851 44.6835 43.1492C43.2089 44.4133 42.2344 46.1627 41.9358 48.0819C41.6371 50.0011 42.034 51.9638 43.0548 53.6162C44.0756 55.2686 45.6532 56.502 47.5031 57.0938C45.7711 60.0767 43.6141 62.7917 41.1 65.1532C37.8282 68.2805 33.9418 70.6931 29.6875 72.2376C27.3037 71.107 25.4393 69.1117 24.473 66.6567C23.5067 64.2017 23.5107 61.471 24.4844 59.0188C24.725 58.4563 24.9687 57.8876 25.2031 57.3188C27.0198 56.8913 28.6347 55.8533 29.778 54.3782C30.9212 52.903 31.5236 51.0802 31.4844 49.2143C31.4452 47.3485 30.7668 45.5525 29.5626 44.1268C28.3583 42.701 26.7012 41.7317 24.8682 41.3808C23.0352 41.03 21.1373 41.3189 19.4917 42.1993C17.8461 43.0797 16.5525 44.4982 15.8271 46.2177C15.1016 47.9373 14.9884 49.8537 15.5062 51.6467C16.0239 53.4397 17.1414 55.0007 18.6719 56.0688C16.0704 60.7825 14.0864 65.8113 12.7687 71.0313C11.6625 77.7032 12.7687 84.7813 18.5344 88.7845C31.9719 98.1001 46.5625 83.0095 61.9437 79.2189C67.5187 77.8439 73.6375 78.0657 78.5469 75.2188C80.3215 74.2099 81.8518 72.8219 83.0288 71.154C84.2058 69.486 85.0004 67.579 85.3562 65.5689C85.6825 63.6544 85.6207 61.6939 85.1746 59.8037C84.7285 57.9136 83.9072 56.1323 82.7594 54.5657C83.9845 53.1016 84.6549 51.2529 84.6531 49.3438V49.3313ZM58.125 49.3751V49.347C58.1258 47.9458 57.7649 46.5682 57.0773 45.3473C56.3897 44.1265 55.3986 43.1038 54.2 42.3782L63.0875 24.3751L71.9937 42.5438C70.8764 43.2863 69.9603 44.2939 69.3272 45.4766C68.6942 46.6594 68.3638 47.9805 68.3656 49.322C68.3656 49.3813 68.3656 49.4407 68.3656 49.5001L58.125 49.3751Z" fill="#99425B"/>
<path d="M86.6438 49.3313C86.64 46.9701 85.8132 44.6841 84.3057 42.8669C82.7981 41.0496 80.7042 39.8148 78.3844 39.375L89.6156 6.25H36.5281L47.7781 39.4406C45.8132 39.8782 44.0232 40.8913 42.6364 42.3505C41.2497 43.8097 40.3291 45.649 39.9921 47.6337C39.6551 49.6183 39.917 51.6584 40.7444 53.4936C41.5718 55.3288 42.9271 56.8759 44.6375 57.9375C43.2246 60.0372 41.581 61.9722 39.7375 63.7062C36.8839 66.4355 33.5311 68.5893 29.8625 70.05C28.1405 69.0499 26.8352 67.4643 26.1847 65.5822C25.5342 63.7001 25.5818 61.6468 26.3188 59.7969L26.4438 59.5062L26.675 58.9594C28.7568 58.2372 30.5467 56.8563 31.7735 55.0258C33.0003 53.1954 33.5973 51.015 33.474 48.815C33.3508 46.6149 32.5141 44.5148 31.0906 42.8328C29.667 41.1508 27.7342 39.9784 25.5848 39.4932C23.4353 39.0079 21.1863 39.2363 19.1782 40.1436C17.1701 41.0509 15.5124 42.5878 14.4559 44.5216C13.3995 46.4554 13.0019 48.6808 13.3234 50.8608C13.6448 53.0407 14.6678 55.0566 16.2375 56.6031C15.9 57.325 15.5438 58.0563 15.1781 58.8094C13.1529 62.5352 11.6792 66.5352 10.8031 70.6844C9.35001 79.4344 11.6938 86.4438 17.4 90.3969C20.4676 92.5905 24.1475 93.7636 27.9188 93.75C34.5813 93.75 41.3219 90.4031 47.9188 87.1281C52.5277 84.6218 57.3906 82.6136 62.425 81.1375C64.2822 80.7115 66.1595 80.3788 68.05 80.1406C72.0535 79.8209 75.9575 78.73 79.5469 76.9281C81.572 75.7718 83.318 74.1842 84.6611 72.2779C86.0042 70.3715 86.9115 68.193 87.3188 65.8969C87.9837 61.9965 87.218 57.9871 85.1625 54.6063C86.135 53.0188 86.6457 51.1929 86.6438 49.3313ZM82.6656 49.3313C82.6656 50.5488 82.3046 51.7391 81.6281 52.7515C80.9517 53.7639 79.9902 54.5529 78.8653 55.0189C77.7404 55.4848 76.5026 55.6068 75.3084 55.3692C74.1142 55.1317 73.0172 54.5453 72.1563 53.6844C71.2953 52.8234 70.709 51.7265 70.4714 50.5323C70.2339 49.3381 70.3558 48.1003 70.8218 46.9754C71.2877 45.8504 72.0768 44.889 73.0892 44.2125C74.1015 43.5361 75.2918 43.175 76.5094 43.175C78.1414 43.1775 79.7058 43.8269 80.8598 44.9809C82.0138 46.1348 82.6632 47.6993 82.6656 49.3313ZM84.0625 10.2281L74.1438 39.4781C73.7192 39.5816 73.3017 39.7121 72.8938 39.8688L63.0969 19.8687L53.2688 39.75C52.8407 39.6024 52.4032 39.4834 51.9594 39.3937L42.075 10.2281H84.0625ZM49.9781 43.175C51.1957 43.175 52.386 43.5361 53.3984 44.2125C54.4108 44.889 55.1998 45.8504 55.6658 46.9754C56.1317 48.1003 56.2536 49.3381 56.0161 50.5323C55.7785 51.7265 55.1922 52.8234 54.3313 53.6844C53.4703 54.5453 52.3734 55.1317 51.1792 55.3692C49.985 55.6068 48.7471 55.4848 47.6222 55.0189C46.4973 54.5529 45.5359 53.7639 44.8594 52.7515C44.1829 51.7391 43.8219 50.5488 43.8219 49.3313C43.8235 47.699 44.4727 46.1341 45.6268 44.98C46.781 43.8258 48.3459 43.1767 49.9781 43.175ZM23.3438 43.2344C24.5613 43.2344 25.7516 43.5954 26.764 44.2719C27.7764 44.9483 28.5654 45.9098 29.0314 47.0347C29.4973 48.1596 29.6193 49.3975 29.3817 50.5916C29.1442 51.7858 28.5578 52.8828 27.6969 53.7437C26.8359 54.6047 25.739 55.191 24.5448 55.4286C23.3506 55.6661 22.1128 55.5442 20.9879 55.0783C19.863 54.6123 18.9015 53.8232 18.225 52.8109C17.5486 51.7985 17.1875 50.6082 17.1875 49.3906C17.1892 47.7589 17.8379 46.1945 18.9914 45.0404C20.1448 43.8864 21.7121 43.2369 23.3438 43.2344ZM83.3969 65.2156C83.0884 66.9384 82.4047 68.5721 81.3943 70.0011C80.3838 71.4301 79.0714 72.6193 77.55 73.4844C74.3948 75.0192 70.9771 75.9418 67.4781 76.2031C65.5031 76.4875 63.4625 76.7813 61.4656 77.275C56.15 78.8148 51.0161 80.9239 46.1531 83.5656C36.2656 88.475 27.7156 92.7156 19.6781 87.1375C13.7813 83.05 14.0531 75.4875 14.7406 71.3437C15.5485 67.571 16.899 63.9353 18.75 60.55C19.0375 59.9562 19.3188 59.3781 19.5938 58.8031C20.4336 59.1374 21.3143 59.3581 22.2125 59.4594C21.4159 62.2686 21.6375 65.2691 22.8383 67.9308C24.039 70.5925 26.1417 72.7443 28.775 74.0062L29.5406 74.4L30.35 74.1094C34.8661 72.4808 38.9918 69.9262 42.4625 66.6094C44.7542 64.4514 46.7676 62.0159 48.4563 59.3594C50.616 59.6879 52.8241 59.3093 54.7511 58.28C56.678 57.2507 58.2205 55.626 59.1484 53.6483C60.0763 51.6705 60.3398 49.4458 59.8997 47.3059C59.4596 45.1661 58.3394 43.226 56.7063 41.775L63.075 28.8969L69.5094 42.0219C67.6787 43.7862 66.5787 46.1748 66.4282 48.7128C66.2777 51.2509 67.0875 53.7527 68.6969 55.7211C70.3062 57.6895 72.5972 58.9803 75.1146 59.3371C77.632 59.6939 80.1914 59.0905 82.2844 57.6469C83.4452 59.9879 83.8337 62.6368 83.3938 65.2125L83.3969 65.2156Z" fill="white"/>
</svg>
