<svg width="100" height="100" viewBox="0 0 100 100" fill="none" xmlns="http://www.w3.org/2000/svg">
<path d="M50 93.75C74.1625 93.75 93.75 74.1625 93.75 50C93.75 25.8375 74.1625 6.25 50 6.25C25.8375 6.25 6.25 25.8375 6.25 50C6.25 74.1625 25.8375 93.75 50 93.75Z" fill="#0769AD"/>
<path d="M70.8038 41.9409C74.732 41.9409 78.3285 40.6309 81.1091 38.4581C78.2223 42.2619 73.4395 44.7488 68.0276 44.7488C59.2113 44.7488 52.0645 38.1491 52.0645 30.008C52.0645 25.4941 54.2616 21.454 57.7223 18.75C55.9063 21.1428 54.8407 24.0566 54.8407 27.2002C54.8407 35.3413 61.9876 41.9409 70.8038 41.9409Z" fill="#78CFF5"/>
<path d="M80.9576 52.058C76.7226 55.3799 71.2401 57.3836 65.2517 57.3836C51.8357 57.3836 40.9598 47.3271 40.9598 34.9215C40.9598 30.11 42.596 25.6517 45.3817 21.9966C40.1292 26.1168 36.7954 32.2649 36.7954 39.133C36.7954 51.5386 47.6713 61.5955 61.0873 61.5955C69.3001 61.5955 76.5607 57.8271 80.9576 52.058Z" fill="#78CFF5"/>
<path d="M81.25 64.9065C75.2153 70.6653 66.8553 74.2306 57.6172 74.2306C39.2178 74.2306 24.3024 60.0884 24.3024 42.6431C24.3024 37.115 25.8001 31.9187 28.4317 27.3989C22.4476 33.1093 18.75 40.9765 18.75 49.6625C18.75 67.1078 33.6653 81.25 52.0647 81.25C64.6334 81.25 75.5769 74.6503 81.25 64.9065Z" fill="#78CFF5"/>
</svg>
