<?xml version="1.0" ?><!DOCTYPE svg  PUBLIC '-//W3C//DTD SVG 1.1//EN'  'http://www.w3.org/Graphics/SVG/1.1/DTD/svg11.dtd'><svg enable-background="new 0 0 100 100" height="100px" version="1.1" viewBox="0 0 100 100" width="100px" xml:space="preserve" xmlns="http://www.w3.org/2000/svg" xmlns:xlink="http://www.w3.org/1999/xlink"><g id="Layer_1"><g><polygon fill="#4B612C" points="79.854,67.621 79.854,50.037 61.772,50.037 61.772,72.668 71.491,75.291   "/><polygon fill="#4B612C" points="50.001,64.678 71.351,69.015 71.351,24.697 50.001,30.487   "/><polygon fill="#759C3E" points="50.001,50.037 50.001,14 65.742,21.887   "/><polygon fill="#759C3E" points="79.854,50.037 79.854,71.146 71.471,75.34   "/><polygon fill="#759C3E" points="79.854,37.496 79.854,28.883 71.351,24.697 50.001,64.678 50.001,86 65.794,78.104   "/><polygon fill="#759C3E" points="20.146,67.621 20.146,50.037 38.229,50.037 38.229,72.668 28.511,75.291   "/><polygon fill="#759C3E" points="50.001,64.678 28.65,69.015 28.65,24.697 50.001,30.487   "/><polygon fill="#4B612C" points="50.001,50.037 50.001,14 34.259,21.887   "/><polygon fill="#4B612C" points="20.146,50.037 20.146,71.146 28.53,75.34   "/><polygon fill="#4B612C" points="20.146,37.496 20.146,28.883 28.65,24.697 50.001,64.678 50.001,86 34.208,78.104   "/></g></g></svg>