<svg width="100" height="100" viewBox="0 0 100 100" fill="none" xmlns="http://www.w3.org/2000/svg">
<g clip-path="url(#clip0_2_464)">
<path d="M50 0C40.111 0 30.444 2.93245 22.2215 8.42652C13.9991 13.9206 7.59043 21.7295 3.80605 30.8658C0.021664 40.0021 -0.968503 50.0555 0.960758 59.7545C2.89002 69.4536 7.65206 78.3627 14.6447 85.3553C21.6373 92.348 30.5465 97.11 40.2455 99.0393C49.9446 100.969 59.9979 99.9784 69.1342 96.194C78.2705 92.4096 86.0794 86.001 91.5735 77.7785C97.0676 69.5561 100 59.8891 100 50C99.9831 36.7444 94.7098 24.0365 85.3366 14.6634C75.9635 5.29023 63.2556 0.0169497 50 0ZM50 6.34875C58.894 6.34966 67.5756 9.06602 74.884 14.1346C82.1924 19.2031 87.779 26.3822 90.8968 34.7117C87.6726 32.7972 81.2954 32.1922 73.1032 32.8754C72.2064 32.9466 71.1673 33.5872 73.1459 33.7367C75.4947 33.9075 78.9965 34.669 79.9787 36.669C81.8861 40.5623 74.6192 43.0747 72.1495 44.3416C72.0712 44.0285 71.9858 43.7153 71.8933 43.395C71.1188 40.4341 69.7575 37.6588 67.8901 35.234C66.0228 32.8091 63.6874 30.784 61.0225 29.2789C58.3577 27.7737 55.4176 26.8191 52.3768 26.4718C49.3361 26.1244 46.2565 26.3913 43.3208 27.2567C40.3852 28.1221 37.6532 29.5683 35.2871 31.5096C32.921 33.4508 30.9689 35.8475 29.5466 38.5575C28.1243 41.2675 27.2608 44.2356 27.0074 47.2857C26.7539 50.3357 27.1157 53.4056 28.0712 56.3132C28.1637 56.6263 28.2634 56.9324 28.3701 57.2456C25.6442 57.5018 18.1708 59.3096 17.694 55.0036C17.4377 52.79 19.9644 50.2562 21.8506 48.8399C23.4377 47.6512 22.2207 47.6726 21.4235 48.1281C14.057 51.9573 8.98223 55.9573 7.35945 59.331C5.96337 52.9571 6.01422 46.3513 7.50824 39.9997C9.00227 33.648 11.9015 27.7122 15.9925 22.629C20.0835 17.5458 25.2622 13.4446 31.1475 10.6271C37.0329 7.80968 43.475 6.34769 50 6.34875ZM50 93.6512C41.0432 93.6528 32.3025 90.8993 24.9637 85.7645C17.6249 80.6296 12.043 73.3617 8.97511 64.9466C12.9893 67.452 22.2278 67.7936 33.8434 66.0427C36.7469 68.9421 40.3772 71.0066 44.3535 72.0196C48.3297 73.0326 52.5053 72.9568 56.4422 71.8001C60.379 70.6433 63.9319 68.4483 66.7282 65.4454C69.5245 62.4425 71.461 58.7423 72.3345 54.7331C82.9466 49.9715 90.484 44.7687 92.605 40.4982C94.0283 46.8813 93.9995 53.5025 92.5205 59.8729C91.0416 66.2433 88.1505 72.2001 84.0606 77.3032C79.9707 82.4063 74.7866 86.5254 68.8912 89.3563C62.9959 92.1871 56.5398 93.6573 50 93.6584V93.6512Z" fill="#DF4090"/>
</g>
<defs>
<clipPath id="clip0_2_464">
<rect width="100" height="100" fill="white"/>
</clipPath>
</defs>
</svg>
