<svg width="100" height="100" viewBox="0 0 100 100" fill="none" xmlns="http://www.w3.org/2000/svg">
<path d="M98.4301 22.5832C98.4661 22.7163 98.4848 22.8535 98.4848 22.9913V44.4186C98.4848 44.9784 98.1854 45.4955 97.6998 45.774L79.7154 56.1283V76.6514C79.7154 77.2099 79.4186 77.7255 78.9343 78.0067L41.3935 99.6176C41.3076 99.6664 41.2139 99.6977 41.1201 99.7309C41.085 99.7426 41.0518 99.7641 41.0147 99.7738C40.7522 99.8429 40.4764 99.8429 40.214 99.7738C40.171 99.7621 40.1319 99.7387 40.0909 99.7231C40.005 99.6918 39.9152 99.6645 39.8331 99.6176L2.30021 78.0067C1.8149 77.7279 1.51514 77.2111 1.51514 76.6514V12.3695C1.51514 12.2289 1.53467 12.0922 1.56982 11.9594C1.58154 11.9144 1.60888 11.8734 1.6245 11.8285C1.65379 11.7465 1.68113 11.6625 1.7241 11.5864C1.75339 11.5356 1.79636 11.4946 1.83151 11.4477C1.87642 11.3852 1.91744 11.3208 1.97016 11.2661C2.01508 11.2212 2.07367 11.188 2.12444 11.1489C2.18108 11.102 2.23185 11.0513 2.2963 11.0141H2.29825L21.0657 0.20871C21.5493 -0.0695699 22.1444 -0.0695699 22.628 0.20871L41.3955 11.0141H41.3994C41.4619 11.0532 41.5146 11.102 41.5712 11.1469C41.622 11.186 41.6786 11.2212 41.7236 11.2641C41.7782 11.3208 41.8173 11.3852 41.8642 11.4477C41.8974 11.4946 41.9423 11.5356 41.9696 11.5864C42.0145 11.6645 42.0399 11.7465 42.0712 11.8285C42.0868 11.8734 42.1141 11.9144 42.1259 11.9613C42.1618 12.0944 42.1802 12.2316 42.1805 12.3695V52.5193L57.8194 43.5144V22.9894C57.8194 22.8527 57.839 22.714 57.8741 22.5832C57.8878 22.5363 57.9132 22.4953 57.9288 22.4504C57.96 22.3684 57.9874 22.2844 58.0303 22.2082C58.0596 22.1574 58.1026 22.1164 58.1358 22.0696C58.1827 22.0071 58.2217 21.9426 58.2764 21.8879C58.3213 21.843 58.378 21.8098 58.4287 21.7708C58.4873 21.7239 58.5381 21.6731 58.6006 21.636H58.6025L77.3719 10.8306C77.8554 10.5519 78.4508 10.5519 78.9343 10.8306L97.7017 21.636C97.7681 21.6751 97.8189 21.7239 97.8775 21.7688C97.9263 21.8079 97.9829 21.843 98.0279 21.886C98.0825 21.9426 98.1216 22.0071 98.1685 22.0696C98.2036 22.1164 98.2466 22.1574 98.2739 22.2082C98.3188 22.2844 98.3442 22.3684 98.3755 22.4504C98.393 22.4953 98.4184 22.5363 98.4301 22.5832ZM95.3563 43.5144V25.6961L88.7886 29.4769L79.7154 34.701V52.5193L95.3582 43.5144H95.3563ZM76.5888 75.7472V57.9171L67.664 63.0142L42.1786 77.5595V95.5575L76.5888 75.7472ZM4.6437 15.0742V75.7472L39.05 95.5555V77.5614L21.0755 67.3887L21.0696 67.3848L21.0618 67.3809C21.0013 67.3458 20.9505 67.295 20.8938 67.252C20.845 67.213 20.7884 67.1817 20.7454 67.1388L20.7415 67.1329C20.6907 67.0841 20.6556 67.0236 20.6126 66.9689C20.5736 66.9161 20.5267 66.8712 20.4955 66.8165L20.4935 66.8107C20.4583 66.7521 20.4369 66.6818 20.4115 66.6154C20.3861 66.5568 20.3529 66.5021 20.3373 66.4396V66.4377C20.3177 66.3635 20.3138 66.2854 20.306 66.2092C20.2982 66.1506 20.2826 66.092 20.2826 66.0334V66.0295V24.0791L11.2113 18.8531L4.6437 15.0762V15.0742ZM21.8488 3.36851L6.21188 12.3695L21.8449 21.3704L37.4799 12.3675L21.8449 3.36851H21.8488ZM29.9807 59.542L39.052 54.3199V15.0742L32.4844 18.8551L23.4111 24.0791V63.3247L29.9807 59.542ZM78.1531 13.9904L62.5181 22.9913L78.1531 31.9923L93.7861 22.9894L78.1531 13.9904ZM76.5888 34.701L67.5156 29.4769L60.948 25.6961V43.5144L70.0192 48.7365L76.5888 52.5193V34.701ZM40.6124 74.8547L63.5454 61.7624L75.0089 55.2202L59.3857 46.2251L41.3974 56.5814L25.0028 66.0198L40.6124 74.8547Z" fill="#FF2D20"/>
</svg>
