<svg width="100" height="100" viewBox="0 0 100 100" fill="none" xmlns="http://www.w3.org/2000/svg">
<g clip-path="url(#clip0_2_587)">
<path d="M85 0H15C6.71573 0 0 6.71573 0 15V85C0 93.2843 6.71573 100 15 100H85C93.2843 100 100 93.2843 100 85V15C100 6.71573 93.2843 0 85 0Z" fill="url(#paint0_linear_2_587)"/>
<path d="M84.9999 0H53.5937C49.453 9.60938 42.0312 25.3125 41.7187 55.3516C41.7134 55.6104 41.7602 55.8677 41.8563 56.1081C41.9523 56.3485 42.0957 56.5672 42.2778 56.7512C42.46 56.9351 42.6772 57.0807 42.9167 57.1791C43.1561 57.2775 43.4129 57.3269 43.6718 57.3242H55.1366C55.3956 57.3241 55.6519 57.376 55.8904 57.4768C56.1289 57.5776 56.3447 57.7253 56.525 57.9111C56.7054 58.0969 56.8465 58.317 56.9402 58.5584C57.0339 58.7998 57.0781 59.0576 57.0702 59.3164C56.7853 72.9746 58.0366 86.6214 60.8007 100H84.9999C88.9782 100 92.7935 98.4196 95.6065 95.6066C98.4196 92.7936 99.9999 88.9782 99.9999 85V15C99.9999 11.0218 98.4196 7.20644 95.6065 4.3934C92.7935 1.58035 88.9782 0 84.9999 0Z" fill="url(#paint1_linear_2_587)"/>
<path d="M72.4609 29.1016V35.7422M27.7344 29.1016V35.7422M79.1797 64.4922C71.3453 72.0489 60.8849 76.2716 50 76.2716C39.1151 76.2716 28.6547 72.0489 20.8203 64.4922" stroke="black" stroke-width="4" stroke-linecap="round"/>
</g>
<defs>
<linearGradient id="paint0_linear_2_587" x1="0" y1="10000" x2="0" y2="0" gradientUnits="userSpaceOnUse">
<stop stop-color="#EF29B8"/>
<stop offset="1" stop-color="#19D3FD"/>
</linearGradient>
<linearGradient id="paint1_linear_2_587" x1="41.7183" y1="10000" x2="41.7183" y2="0" gradientUnits="userSpaceOnUse">
<stop stop-color="#DBE9F4"/>
<stop offset="1" stop-color="#F7F6F6"/>
</linearGradient>
<clipPath id="clip0_2_587">
<rect width="100" height="100" fill="white"/>
</clipPath>
</defs>
</svg>
