<svg width="100" height="100" viewBox="0 0 100 100" fill="none" xmlns="http://www.w3.org/2000/svg">
<path d="M97.8057 16.7986C96.2602 16.848 96.749 17.2933 93.4095 18.1151C90.0373 18.945 85.9181 18.6905 82.2868 20.2135C71.4465 24.7597 69.2716 40.2979 59.4168 45.864C52.0506 50.0248 44.6187 50.3567 37.9371 52.4504C33.546 53.8274 28.7426 56.6511 24.7642 60.0795C21.6762 62.7416 21.5955 65.0823 18.369 68.4212C14.9178 71.9925 4.65241 68.4815 0 73.9475C1.49871 75.4629 2.15576 75.8874 5.10925 75.4942C4.49777 76.6532 0.893217 77.6299 1.59881 79.3348C2.34125 81.1288 11.0556 82.3449 18.9772 77.5622C22.6664 75.3349 25.6049 72.1245 31.3506 71.3581C38.7858 70.3671 47.351 71.9938 55.9585 73.235C54.6822 77.0405 52.1198 79.5712 50.0672 82.602C49.4316 83.2865 51.3439 83.3633 53.5255 82.9495C57.45 81.9791 60.2782 81.1978 63.24 79.4738C66.8786 77.3556 67.43 71.925 71.8945 70.7499C74.3819 74.5731 81.1473 75.4763 85.3454 72.4182C81.6617 71.3755 80.6436 63.5347 81.8871 60.0795C83.0649 56.8091 84.2287 51.5775 85.4149 47.2543C86.6884 42.6113 87.1582 36.7593 88.6994 34.3943C91.0182 30.836 93.5803 29.6141 95.8048 27.6076C98.0292 25.6011 100.065 23.648 99.9984 19.0568C99.9769 17.578 99.2123 16.7537 97.8057 16.7986Z" fill="#002B64"/>
<path d="M94.4944 19.5186C94.8648 20.7811 95.4442 21.3605 97.9493 21.5923C97.5834 24.7683 95.4647 26.5055 93.0894 28.1722C90.999 29.6382 88.7091 31.0499 87.2375 33.3399C85.7299 35.6859 84.7729 43.7146 82.4352 51.6436C80.4147 58.4947 77.3634 65.2686 72.0349 68.2367C71.4783 66.8356 72.1059 64.2495 70.9986 63.3995C70.2823 65.4427 69.4722 67.3923 68.5235 69.2043C65.3968 75.1804 60.7675 79.655 53.0315 81.0212C56.7021 76.0542 60.2119 70.9248 60.2879 62.3638C57.7046 62.9227 57.7595 69.0246 55.1052 70.6559C53.4036 70.8411 51.6797 70.84 49.9448 70.7357C42.8198 70.3088 35.5107 68.1674 28.8454 70.306C24.3071 71.7626 20.5954 75.1987 16.7524 76.8654C12.2356 78.8244 8.81509 79.63 3.19052 78.8244C2.47636 77.8624 7.30692 76.6209 7.01804 74.5322C4.81679 74.2888 3.53873 74.8222 1.62524 73.9528C1.8365 73.5636 2.147 73.2392 2.53791 72.9692C6.04495 70.5417 16.0066 72.3958 18.6725 69.7782C20.3182 68.1635 21.3977 66.4735 22.5156 64.8306C23.5995 63.2365 24.7201 61.6868 26.4274 60.29C27.0578 59.7744 27.7431 59.2648 28.4706 58.7675C31.3799 56.7763 34.979 54.9704 38.521 53.7256C43.346 52.0295 48.2353 51.8898 53.3781 49.9247C56.5552 48.7104 60.0101 47.2106 62.8263 45.1119C63.495 44.6129 64.1276 44.0811 64.7126 43.5111C72.7541 35.672 74.3482 21.844 86.8943 20.5554C88.4113 20.3996 89.6533 20.4501 90.7839 20.4157C92.0869 20.3769 93.2402 20.2255 94.4944 19.5186ZM79.1998 63.776C79.3495 66.1724 80.7406 70.927 81.9688 72.0825C79.5635 72.6675 75.4199 71.7011 74.357 70.0044C74.9032 67.5547 77.7454 65.3152 79.1998 63.776Z" fill="#C49A6C"/>
<path d="M95.398 22.2019C94.9144 23.2162 93.9887 24.5239 93.9887 27.1058C93.9847 27.5491 93.6521 27.8527 93.6464 27.1694C93.6714 24.6459 94.3395 23.555 95.0489 22.1213C95.3787 21.5339 95.5773 21.7762 95.398 22.2019ZM94.911 21.8199C94.3406 22.7876 92.9671 24.5528 92.74 27.1251C92.698 27.5661 92.3393 27.8391 92.3938 27.1574C92.6413 24.6465 93.739 23.0748 94.5722 21.7087C94.9502 21.153 95.1278 21.4118 94.911 21.8199ZM94.4672 21.3136C93.8173 22.2297 91.7031 24.3496 91.2609 26.8941C91.1815 27.3294 90.8012 27.5723 90.913 26.8975C91.3705 24.4155 93.193 22.4647 94.138 21.1746C94.5614 20.6518 94.7163 20.9249 94.4672 21.3136ZM94.071 20.7489L93.8572 20.9763C92.9119 21.9898 90.7157 24.4618 89.9839 26.7244C89.8431 27.1444 89.4327 27.3317 89.6388 26.679C90.4402 24.2861 92.6475 21.7087 93.7645 20.5644C94.2577 20.1064 94.3724 20.3987 94.071 20.7489ZM82.7234 25.8719C83.2132 23.7679 84.8495 22.8092 87.6744 23.0431C88.356 26.1835 84.5413 27.4503 82.7234 25.8719Z" fill="#002B64"/>
</svg>
