<svg width="100" height="100" viewBox="0 0 100 100" fill="none" xmlns="http://www.w3.org/2000/svg">
<g clip-path="url(#clip0_2_574)">
<path d="M16.6667 36.6668L19.0237 34.3098C18.0703 33.3565 16.6367 33.0713 15.3911 33.5872C14.1455 34.1032 13.3333 35.3186 13.3333 36.6668H16.6667ZM30 50.0002L27.643 52.3572L30 54.7142L32.357 52.3572L30 50.0002ZM43.3333 36.6668H46.6667C46.6667 35.3186 45.8545 34.1032 44.6089 33.5872C43.3633 33.0713 41.9297 33.3565 40.9763 34.3098L43.3333 36.6668ZM70 63.3335L67.6427 65.6905L70 68.0475L72.3573 65.6905L70 63.3335ZM10 20.0002H90V13.3335H10V20.0002ZM93.3333 23.3335V76.6668H100V23.3335H93.3333ZM90 80.0002H10V86.6668H90V80.0002ZM6.66667 76.6668V23.3335H0V76.6668H6.66667ZM10 80.0002C8.15907 80.0002 6.66667 78.5075 6.66667 76.6668H0C0 82.1895 4.47716 86.6668 10 86.6668V80.0002ZM93.3333 76.6668C93.3333 78.5075 91.8407 80.0002 90 80.0002V86.6668C95.5227 86.6668 100 82.1895 100 76.6668H93.3333ZM90 20.0002C91.8407 20.0002 93.3333 21.4926 93.3333 23.3335H100C100 17.8106 95.5227 13.3335 90 13.3335V20.0002ZM10 13.3335C4.47715 13.3335 0 17.8106 0 23.3335H6.66667C6.66667 21.4926 8.15907 20.0002 10 20.0002V13.3335ZM20 66.6668V36.6668H13.3333V66.6668H20ZM14.3097 39.0238L27.643 52.3572L32.357 47.6432L19.0237 34.3098L14.3097 39.0238ZM32.357 52.3572L45.6903 39.0238L40.9763 34.3098L27.643 47.6432L32.357 52.3572ZM40 36.6668V66.6668H46.6667V36.6668H40ZM66.6667 33.3335V63.3335H73.3333V33.3335H66.6667ZM54.3097 52.3572L67.6427 65.6905L72.3573 60.9765L59.0237 47.6432L54.3097 52.3572ZM72.3573 65.6905L85.6907 52.3572L80.976 47.6432L67.6427 60.9765L72.3573 65.6905Z" fill="#2168AA"/>
</g>
<defs>
<clipPath id="clip0_2_574">
<rect width="100" height="100" fill="white"/>
</clipPath>
</defs>
</svg>
