<svg width="100" height="100" viewBox="0 0 100 100" fill="none" xmlns="http://www.w3.org/2000/svg">
<path fill-rule="evenodd" clip-rule="evenodd" d="M22.758 16.8337C21.6205 16.8126 20.8156 16.957 19.9654 17.1436V17.298H20.1209C20.6643 18.4129 21.6226 19.1308 22.2931 20.0912C22.8086 21.1776 23.3257 22.2624 23.8428 23.3472C23.8955 23.2955 23.9477 23.2444 23.9983 23.1927C24.9603 22.5164 25.3989 21.4338 25.3946 19.7807C25.0088 19.3749 24.9513 18.8678 24.6182 18.3844C24.1765 17.7398 23.3173 17.3755 22.758 16.8337ZM97.8278 96.4039C98.5599 96.941 99.0507 97.7738 100 98.1112V97.9557C99.5003 97.3221 99.3733 96.4476 98.9147 95.7835C98.2442 95.113 97.5684 94.4398 96.8979 93.7667C94.9255 91.1496 92.4243 88.8525 89.7635 86.9433C87.644 85.4194 82.8936 83.3636 82.0081 80.8952C81.9575 80.8425 81.9048 80.7903 81.8521 80.7376C83.3559 80.5689 85.118 80.0249 86.5059 79.6522C88.8379 79.0271 90.9226 79.1894 93.3294 78.5669C94.4168 78.2554 95.5016 77.9444 96.5869 77.6371V77.0146C95.3698 75.7653 94.5022 74.1123 93.176 72.9816C89.7013 70.0256 85.9119 67.0696 82.0075 64.6069C79.8443 63.2396 77.1671 62.3524 74.8726 61.1938C74.1009 60.8048 72.7462 60.6019 72.2354 59.953C71.032 58.4159 70.3747 56.4683 69.4449 54.6787C67.4988 50.9294 65.5848 46.8348 63.8596 42.8899C62.6847 40.2005 61.9156 37.5481 60.4487 35.1345C53.4059 23.5554 45.8234 16.5659 34.0809 9.69603C31.5803 8.2354 28.5726 7.65874 25.3946 6.90497C23.6894 6.80218 21.9811 6.69729 20.2759 6.5945C19.2348 6.15963 18.1521 4.88613 17.1743 4.26783C13.2832 1.81043 3.30338 -3.53607 0.423239 3.49297C-1.39635 7.92862 3.14103 12.2573 4.76506 14.5059C5.90521 16.0825 7.36267 17.851 8.17864 19.6237C8.71366 20.7891 8.80485 21.9588 9.26607 23.1917C10.393 26.23 11.3724 29.5349 12.8304 32.3434C13.5689 33.7634 14.3822 35.261 15.3142 36.5308C15.8861 37.3104 16.8633 37.6535 17.0167 38.8575C16.0611 40.1979 16.0063 42.2779 15.4691 43.9757C13.0444 51.6199 13.959 61.1195 17.4859 66.7775C18.5664 68.5133 21.1156 72.2395 24.6182 70.8094C27.6823 69.5612 26.9992 65.6922 27.8758 62.2792C28.0729 61.5038 27.9527 60.935 28.3407 60.4179V60.5724C29.2726 62.4336 30.2035 64.2948 31.1333 66.1555C33.2007 69.4832 36.8678 72.9632 39.9756 75.3083C41.5849 76.5249 42.8537 78.6291 44.9384 79.3412V79.1836H44.7829C44.377 78.5569 43.7455 78.2939 43.2332 77.7894C42.0187 76.5987 40.6688 75.1196 39.6641 73.756C36.8367 69.9191 34.3397 65.7191 32.0647 61.3483C30.9773 59.2604 30.0327 56.9574 29.1161 54.8337C28.7634 54.014 28.7676 52.7758 28.0307 52.3515C27.0271 53.9076 25.5496 55.1674 24.7732 57.0049C23.5324 59.943 23.3726 63.5258 22.9125 67.2414C22.6405 67.3394 22.7612 67.2725 22.601 67.3958C20.4398 66.8761 19.6813 64.6517 18.879 62.7435C16.8491 57.9194 16.4722 50.1503 18.2586 44.5961C18.7209 43.1597 20.8125 38.6334 19.9638 37.3062C19.56 35.981 18.2296 35.2162 17.4848 34.2036C16.5592 32.9522 15.6389 31.306 14.9989 29.8602C13.3396 26.0987 12.5637 21.876 10.8142 18.0729C9.97715 16.2559 8.5629 14.4153 7.40115 12.7986C6.115 11.0085 4.6744 9.69076 3.67868 7.52433C3.32394 6.75527 2.84163 5.52446 3.36769 4.73327C3.53373 4.1993 3.77093 3.97686 4.29962 3.80239C5.20046 3.10871 7.70371 4.03326 8.64144 4.4228C11.1273 5.45541 13.2052 6.43953 15.312 7.83479C16.3225 8.50528 17.3456 9.80303 18.567 10.162H19.9633C22.1487 10.6633 24.595 10.3185 26.6334 10.9379C30.2393 12.0338 33.4705 13.7385 36.405 15.5918C45.3443 21.2356 52.6543 29.2719 57.6544 38.8575C58.4588 40.4008 58.8078 41.8736 59.5151 43.5113C60.9441 46.8126 62.7463 50.2088 64.1685 53.4379C65.587 56.6575 66.9701 59.9082 68.9758 62.5891C70.03 63.9975 74.1046 64.7534 75.9574 65.5367C77.2551 66.0844 79.381 66.6568 80.6086 67.3958C82.9585 68.8132 85.2319 70.4989 87.4342 72.0508C88.5348 72.8272 91.9194 74.5277 92.0859 75.9266C86.6319 75.7822 82.4651 76.2887 78.9029 77.79C77.8903 78.2153 76.2768 78.228 76.1102 79.4946C76.6668 80.0776 76.7549 80.9505 77.1977 81.6669C78.0458 83.0437 79.4816 84.887 80.7641 85.8558C82.1646 86.9127 83.6073 88.0433 85.1064 88.9579C87.7763 90.5867 90.7576 91.516 93.3268 93.1463C94.8469 94.1088 96.3508 95.3185 97.8278 96.4039Z" fill="#00758F"/>
</svg>
