<svg width="100" height="100" viewBox="0 0 100 100" fill="none" xmlns="http://www.w3.org/2000/svg">
<path d="M71.4726 35.3374L71.4376 35.3224C71.4176 35.3149 71.3976 35.3074 71.3801 35.2899C71.3515 35.2591 71.3302 35.2221 71.3181 35.1818C71.306 35.1415 71.3032 35.099 71.3101 35.0574L73.2426 23.2424L82.3051 32.3074L72.8801 36.3174C72.8539 36.328 72.8259 36.3331 72.7976 36.3324H72.7601C72.7476 36.3249 72.7351 36.3149 72.7101 36.2899C72.3594 35.8994 71.9399 35.5766 71.4726 35.3374ZM84.6176 34.6174L94.3076 44.3074C96.3201 46.3224 97.3276 47.3274 97.6951 48.4924C97.7501 48.6649 97.7951 48.8374 97.8301 49.0149L74.6726 39.2074C74.6602 39.2023 74.6477 39.1973 74.6351 39.1924C74.5426 39.1549 74.4351 39.1124 74.4351 39.0174C74.4351 38.9224 74.5451 38.8774 74.6376 38.8399L74.6676 38.8274L84.6176 34.6174ZM97.4351 52.1249C96.9351 53.0649 95.9601 54.0399 94.3101 55.6924L83.3851 66.6149L69.2551 63.6724L69.1801 63.6574C69.0551 63.6374 68.9226 63.6149 68.9226 63.5024C68.869 62.9195 68.6959 62.3539 68.4142 61.8408C68.1325 61.3277 67.7481 60.8781 67.2851 60.5199C67.2276 60.4624 67.2426 60.3724 67.2601 60.2899C67.2601 60.2774 67.2601 60.2649 67.2651 60.2549L69.9226 43.9399L69.9326 43.8849C69.9476 43.7599 69.9701 43.6149 70.0826 43.6149C70.6521 43.5441 71.2019 43.3606 71.6997 43.0752C72.1976 42.7898 72.6337 42.4081 72.9826 41.9524C73.0051 41.9274 73.0201 41.8999 73.0501 41.8849C73.1301 41.8474 73.2251 41.8849 73.3076 41.9199L97.4351 52.1249ZM80.8726 69.1274L62.9076 87.0924L65.9826 68.1924L65.9876 68.1674C65.9901 68.1424 65.9951 68.1174 66.0026 68.0949C66.0276 68.0349 66.0926 68.0099 66.1551 67.9849L66.1851 67.9724C66.8584 67.6852 67.4539 67.2422 67.9226 66.6799C67.9826 66.6099 68.0551 66.5424 68.1476 66.5299C68.1716 66.526 68.1961 66.526 68.2201 66.5299L80.8701 69.1299L80.8726 69.1274ZM59.1051 90.8949L57.0801 92.9199L34.6926 60.5649C34.6845 60.5531 34.6762 60.5414 34.6676 60.5299C34.6326 60.4824 34.5951 60.4349 34.6026 60.3799C34.6051 60.3399 34.6301 60.3049 34.6576 60.2749L34.6826 60.2424C34.7501 60.1424 34.8076 60.0424 34.8701 59.9349L34.9201 59.8474L34.9276 59.8399C34.9626 59.7799 34.9951 59.7224 35.0551 59.6899C35.1076 59.6649 35.1801 59.6749 35.2376 59.6874L60.0401 64.8024C60.1095 64.8132 60.1749 64.8416 60.2301 64.8849C60.2626 64.9174 60.2701 64.9524 60.2776 64.9924C60.4506 65.647 60.7726 66.2527 61.2184 66.7623C61.6643 67.2719 62.2218 67.6715 62.8476 67.9299C62.9176 67.9649 62.8876 68.0424 62.8551 68.1249C62.8389 68.1611 62.8264 68.1988 62.8176 68.2374C62.5051 70.1374 59.8251 86.4824 59.1051 90.8949ZM54.8751 95.1224C53.3826 96.5999 52.5026 97.3824 51.5076 97.6974C50.5266 98.0077 49.4737 98.0077 48.4926 97.6974C47.3276 97.3274 46.3201 96.3224 44.3076 94.3074L21.8251 71.8249L27.6976 62.7174C27.7251 62.6724 27.7526 62.6324 27.7976 62.5999C27.8601 62.5549 27.9501 62.5749 28.0251 62.5999C29.373 63.0066 30.8202 62.9333 32.1201 62.3924C32.1876 62.3674 32.2551 62.3499 32.3076 62.3974C32.3339 62.4214 32.3574 62.4482 32.3776 62.4774L54.8751 95.1224ZM19.6576 69.6574L14.5001 64.4999L24.6851 60.1549C24.7112 60.1436 24.7392 60.1376 24.7676 60.1374C24.8526 60.1374 24.9026 60.2224 24.9476 60.2999C25.05 60.4574 25.1584 60.6109 25.2726 60.7599L25.3051 60.7999C25.3351 60.8424 25.3151 60.8849 25.2851 60.9249L19.6576 69.6574ZM12.2176 62.2174L5.69264 55.6924C4.58264 54.5824 3.77764 53.7774 3.21764 53.0849L23.0576 57.1999C23.0826 57.2046 23.1076 57.2087 23.1326 57.2124C23.2551 57.2324 23.3901 57.2549 23.3901 57.3699C23.3901 57.4949 23.2426 57.5524 23.1176 57.5999L23.0601 57.6249L12.2176 62.2174ZM2.07764 49.7299C2.10025 49.3096 2.17585 48.8938 2.30264 48.4924C2.67264 47.3274 3.67764 46.3224 5.69264 44.3074L14.0426 35.9574C17.8872 41.5371 21.7422 47.1096 25.6076 52.6749C25.6751 52.7649 25.7501 52.8649 25.6726 52.9399C25.3076 53.3424 24.9426 53.7824 24.6851 54.2599C24.6572 54.3213 24.6142 54.3746 24.5601 54.4149C24.5276 54.4349 24.4926 54.4274 24.4551 54.4199H24.4501L2.07764 49.7299ZM16.2776 33.7224L27.5051 22.4949C28.5601 22.9574 32.4001 24.5799 35.8351 26.0299C38.4351 27.1299 40.8051 28.1299 41.5501 28.4549C41.6251 28.4849 41.6926 28.5149 41.7251 28.5899C41.7451 28.6349 41.7351 28.6924 41.7251 28.7399C41.5474 29.5504 41.5739 30.3923 41.8021 31.19C42.0303 31.9877 42.4532 32.7161 43.0326 33.3099C43.1076 33.3849 43.0326 33.4924 42.9676 33.5849L42.9326 33.6374L31.5326 51.2949C31.5026 51.3449 31.4751 51.3874 31.4251 51.4199C31.3651 51.4574 31.2801 51.4399 31.2101 51.4224C30.7667 51.3063 30.3109 51.2442 29.8526 51.2374C29.4426 51.2374 28.9976 51.3124 28.5476 51.3949C28.4976 51.4024 28.4501 51.4124 28.4101 51.3824C28.366 51.3463 28.328 51.3033 28.2976 51.2549L16.2776 33.7224ZM29.7726 20.2274L44.3076 5.69243C46.3201 3.67993 47.3276 2.67243 48.4926 2.30493C49.4737 1.99471 50.5266 1.99471 51.5076 2.30493C52.6726 2.67243 53.6801 3.67993 55.6926 5.69243L58.8426 8.84243L48.5051 24.8524C48.4796 24.899 48.4447 24.9399 48.4026 24.9724C48.3401 25.0149 48.2526 24.9974 48.1776 24.9724C47.3626 24.7251 46.4996 24.6801 45.6632 24.8412C44.8269 25.0024 44.0424 25.3649 43.3776 25.8974C43.3101 25.9674 43.2101 25.9274 43.1251 25.8899C41.7751 25.3024 31.2751 20.8649 29.7726 20.2274ZM61.0376 11.0374L70.5826 20.5824L68.2826 34.8274V34.8649C68.2806 34.8974 68.2738 34.9294 68.2626 34.9599C68.2376 35.0099 68.1876 35.0199 68.1376 35.0349C67.6459 35.1839 67.1827 35.4146 66.7676 35.7174C66.7498 35.7302 66.7331 35.7444 66.7176 35.7599C66.6901 35.7899 66.6626 35.8174 66.6176 35.8224C66.581 35.8236 66.5445 35.8176 66.5101 35.8049L51.9651 29.6249L51.9376 29.6124C51.8451 29.5749 51.7351 29.5299 51.7351 29.4349C51.6496 28.6244 51.3849 27.843 50.9601 27.1474C50.8901 27.0324 50.8126 26.9124 50.8726 26.7949L61.0376 11.0374ZM51.2076 32.5524L64.8426 38.3274C64.9176 38.3624 65.0001 38.3949 65.0326 38.4724C65.0457 38.519 65.0457 38.5683 65.0326 38.6149C64.9926 38.8149 64.9576 39.0424 64.9576 39.2724V39.6549C64.9576 39.7499 64.8601 39.7899 64.7701 39.8274L64.7426 39.8374C62.5826 40.7599 34.4176 52.7699 34.3751 52.7699C34.3326 52.7699 34.2876 52.7699 34.2451 52.7274C34.1701 52.6524 34.2451 52.5474 34.3126 52.4524C34.3246 52.436 34.3362 52.4193 34.3476 52.4024L45.5526 35.0524L45.5726 35.0224C45.6376 34.9174 45.7126 34.7999 45.8326 34.7999L45.9451 34.8174C46.2001 34.8524 46.4251 34.8849 46.6526 34.8849C48.3526 34.8849 49.9276 34.0574 50.8776 32.6424C50.9003 32.6046 50.929 32.5709 50.9626 32.5424C51.0301 32.4924 51.1301 32.5174 51.2076 32.5524ZM35.5926 55.5149L66.2926 42.4224C66.2926 42.4224 66.3376 42.4224 66.3801 42.4649C66.5476 42.6324 66.6901 42.7449 66.8276 42.8499L66.8951 42.8924C66.9576 42.9274 67.0201 42.9674 67.0251 43.0324C67.0251 43.0574 67.0251 43.0724 67.0201 43.0949L64.3901 59.2499L64.3801 59.3149C64.3626 59.4399 64.3451 59.5824 64.2276 59.5824C63.5265 59.6298 62.8474 59.8473 62.2493 60.2163C61.6512 60.5853 61.152 61.0945 60.7951 61.6999L60.7826 61.7199C60.7476 61.7774 60.7151 61.8324 60.6576 61.8624C60.6051 61.8874 60.5376 61.8774 60.4826 61.8649L36.0001 56.8149C35.9751 56.8099 35.6201 55.5174 35.5926 55.5149Z" fill="url(#paint0_radial_2_488)"/>
<defs>
<radialGradient id="paint0_radial_2_488" cx="0" cy="0" r="1" gradientUnits="userSpaceOnUse" gradientTransform="translate(-1.13727 48.6489) rotate(90) scale(9575.24 11055)">
<stop stop-color="#20C6B7"/>
<stop offset="1" stop-color="#4D9ABF"/>
</radialGradient>
</defs>
</svg>
