<svg width="100" height="100" viewBox="0 0 100 100" fill="none" xmlns="http://www.w3.org/2000/svg">
<g clip-path="url(#clip0_2_490)">
<path d="M74.2211 93.7585C73.8502 93.9543 73.8711 94.0335 74.2419 93.846C74.3504 93.7994 74.4494 93.733 74.5336 93.6501C74.5336 93.5835 74.5252 93.5918 74.2211 93.7585ZM74.9627 93.3668C74.7877 93.5043 74.7877 93.5126 75.0002 93.4043C75.1169 93.346 75.2169 93.2793 75.2169 93.2585C75.2169 93.1793 75.1669 93.2001 74.9627 93.3668ZM75.4502 93.071C75.2752 93.2085 75.2752 93.2168 75.4877 93.1085C75.6044 93.0501 75.7044 92.9835 75.7044 92.9626C75.7044 92.8835 75.6544 92.9043 75.4502 93.071ZM75.9377 92.7793C75.7627 92.9168 75.7627 92.9251 75.9752 92.8168C76.0919 92.7584 76.1919 92.6918 76.1919 92.6709C76.1919 92.5918 76.1419 92.6126 75.9377 92.7793ZM76.6127 92.3418C76.2711 92.5585 76.1627 92.7043 76.4669 92.5376C76.6836 92.4126 77.0336 92.146 76.9752 92.1376C76.8474 92.1925 76.7259 92.2609 76.6127 92.3418ZM46.7252 0.0251212C46.5086 0.0459546 45.8252 0.112621 45.2086 0.162621C31.0086 1.44179 17.7044 9.10429 9.27939 20.8835C4.62173 27.3486 1.59426 34.843 0.454394 42.7293C0.0543945 45.4751 0.00439453 46.2876 0.00439453 50.0126C0.00439453 53.7376 0.0543945 54.546 0.454394 57.296C3.17106 76.071 16.5336 91.8459 34.6544 97.6918C37.9002 98.7376 41.3211 99.4501 45.2086 99.8793C46.7252 100.046 53.2711 100.046 54.7877 99.8793C61.5002 99.1376 67.1919 97.4751 72.8002 94.6126C73.6586 94.171 73.8252 94.0543 73.7086 93.9584C70.969 90.3387 68.2551 86.6998 65.5669 83.0418L57.5711 72.2418L47.5544 57.4168C44.2239 52.4562 40.8614 47.5172 37.4669 42.6001C37.4294 42.5918 37.3877 49.1793 37.3711 57.221C37.3419 71.3043 37.3336 71.871 37.1544 72.2043C36.9843 72.5937 36.6796 72.9088 36.2961 73.0918C35.9836 73.2501 35.7086 73.2793 34.2336 73.2793H32.5419L32.0919 72.9959C31.8143 72.821 31.5884 72.575 31.4377 72.2834L31.2336 71.8418L31.2544 52.246L31.2836 32.6418L31.5877 32.2626C31.7921 32.0225 32.0376 31.8208 32.3127 31.6668C32.7127 31.471 32.8711 31.4501 34.5627 31.4501C36.5586 31.4501 36.8877 31.5293 37.4086 32.096C41.4633 38.1303 45.4842 44.1873 49.4711 50.2668C55.9627 60.1085 64.8336 73.546 69.1961 80.146L77.1127 92.1376L77.5127 91.8751C81.3221 89.3413 84.7762 86.3104 87.7836 82.8626C94.0834 75.6529 98.1691 66.7785 99.5502 57.3043C99.9502 54.5585 100 53.746 100 50.021C100 46.296 99.9502 45.4876 99.5502 42.7376C96.8336 23.9626 83.4711 8.18762 65.3502 2.34179C61.9638 1.26365 58.4764 0.533491 54.9419 0.162621C54.0044 0.0667879 47.5419 -0.0415454 46.7336 0.0376212L46.7252 0.0251212ZM67.1919 30.2668C67.4249 30.3839 67.6323 30.5463 67.8018 30.7445C67.9714 30.9426 68.0997 31.1726 68.1794 31.421C68.2586 31.6751 68.2752 37.1085 68.2586 49.3543L68.2294 66.9293L65.1294 62.1793L62.0211 57.4293V44.6543C62.0211 36.396 62.0586 31.7543 62.1169 31.5293C62.1876 31.2696 62.3095 31.0267 62.4755 30.8149C62.6415 30.6031 62.8483 30.4266 63.0836 30.296C63.4836 30.0918 63.6294 30.071 65.1669 30.071C66.6127 30.071 66.8669 30.0918 67.1919 30.2668Z" fill="#008080"/>
</g>
<defs>
<clipPath id="clip0_2_490">
<rect width="100" height="100" fill="white"/>
</clipPath>
</defs>
</svg>
