<svg width="100" height="100" viewBox="0 0 100 100" fill="none" xmlns="http://www.w3.org/2000/svg">
<path d="M53.6641 7.18351C51.4459 5.93604 48.5541 5.94163 46.3341 7.18351C35.2153 13.3196 24.0963 19.4575 12.9755 25.5908C10.8115 26.7292 9.35199 29.0531 9.37527 31.465V68.54C9.35965 70.9991 10.8944 73.3453 13.1142 74.4681C16.3085 76.1675 19.4119 78.0394 22.6639 79.6256C26.4203 81.4716 31.1201 81.8797 34.9225 79.9547C38.0091 78.3594 39.38 74.8109 39.3759 71.55C39.4009 59.3144 39.38 47.0784 39.3856 34.8425C39.4591 34.2988 39.0506 33.7175 38.4575 33.7306C37.0366 33.7081 35.6137 33.7175 34.1928 33.7269C33.6559 33.6763 33.1319 34.1222 33.1725 34.6619C33.1534 46.8188 33.1762 58.9794 33.1609 71.1381C33.1919 72.82 32.0556 74.4363 30.4348 75.0044C26.6912 76.3166 16.0062 69.3788 16.0062 69.3788C15.6141 69.1972 15.3651 68.7719 15.4035 68.3494C15.4035 56.1175 15.4054 43.8853 15.4035 31.6553C15.3496 31.1622 15.6535 30.7181 16.1063 30.5168C27.1885 24.4169 38.265 18.3017 49.3472 12.198C49.7322 11.9411 50.2687 11.9419 50.6528 12.1999C61.735 18.3017 72.8134 24.4113 83.8975 30.5115C84.3519 30.7125 84.6428 31.1641 84.5966 31.6553C84.5947 43.8853 84.6003 56.1175 84.5928 68.3478C84.6256 68.7806 84.4019 69.2 83.9978 69.39C73.0191 75.4569 61.9153 81.3281 51.0359 87.5713C50.5612 87.8434 50.0234 88.1519 49.4916 87.8519C46.6306 86.2694 43.8044 84.6253 40.9528 83.0275C40.6428 82.8341 40.2481 82.7509 39.9247 82.9675C38.6462 83.6413 37.4437 84.1869 35.9756 84.7681C33.9137 85.5844 34.2431 85.9181 36.1028 87.0016C39.4375 88.8888 42.7778 90.7684 46.1125 92.6575C48.3078 94.0275 51.2575 94.125 53.5234 92.8591C64.6441 86.7306 75.7612 80.595 86.8841 74.4666C89.0978 73.3375 90.6403 71.0006 90.6247 68.5397V31.465C90.6462 29.102 89.2425 26.8196 87.1437 25.6644C75.9862 19.4984 64.8234 13.3458 53.6641 7.18351Z" fill="#68A063"/>
<path d="M70.4434 35.0192C66.0787 32.6842 60.8862 32.5598 56.0359 32.8651C52.5318 33.2114 48.8465 34.1782 46.2937 36.6901C43.6752 39.2151 43.1052 43.2926 44.349 46.5889C45.2402 48.9182 47.4837 50.4329 49.8037 51.2342C52.7921 52.2892 55.9309 52.6154 59.0705 52.9417C61.9343 53.2392 64.799 53.537 67.5515 54.3879C68.6759 54.7604 69.9852 55.3304 70.3296 56.5539C70.6477 58.0026 70.299 59.6867 69.1227 60.6932C65.3865 63.6504 54.9934 63.1973 51.3018 60.8698C49.8093 59.8782 49.1662 58.1229 48.9046 56.4501C48.8755 55.9289 48.4559 55.4507 47.8899 55.4904C46.4727 55.4735 45.0556 55.4773 43.6384 55.4885C43.144 55.447 42.6299 55.7989 42.6027 56.3035C42.3115 63.9651 49.3481 67.3051 55.9496 68.0404C59.7212 68.3998 63.5755 68.3792 67.2896 67.5698C70.0815 66.9342 72.8809 65.7635 74.8027 63.6132C77.1727 60.9998 77.6387 57.1089 76.5759 53.8535C75.7634 51.4245 73.4412 49.8664 71.0674 49.0648C67.8393 47.9579 64.0137 47.3629 61.0899 47.0845C56.8402 46.6798 51.7902 46.8451 50.5874 44.0526C50.1077 42.5904 50.5159 40.7748 51.8596 39.8754C55.4149 37.4639 62.6509 37.7842 66.3327 39.5857C68.0234 40.4323 69.003 42.171 69.4074 43.9264C69.4824 44.442 69.8293 44.9801 70.4262 44.9576C71.8337 44.9857 73.2412 44.9651 74.6484 44.967C75.1318 45.0007 75.6612 44.7279 75.7556 44.2329C75.6959 40.5642 73.8224 36.8085 70.4434 35.0192Z" fill="#68A063"/>
</svg>
