<svg width="100" height="100" viewBox="0 0 100 100" fill="none" xmlns="http://www.w3.org/2000/svg">
<path fill-rule="evenodd" clip-rule="evenodd" d="M30.4264 84.4199C30.3522 84.2887 30.2861 84.153 30.2285 84.0138C29.8291 83.0897 29.7061 82.0698 29.8745 81.0773H6.24744L41.36 19.2867L52.8871 39.5504L56.2297 33.6358L46.1812 15.9337C45.9 15.4235 44.2027 12.6953 41.2767 12.6953C39.9542 12.6953 38.0591 13.268 36.518 15.9754L0.947238 78.5157C0.645262 79.0572 -0.822967 81.8999 0.634849 84.4199C1.30128 85.5653 2.71744 86.9294 5.84134 86.9294H35.6329C32.5298 86.9294 31.0928 85.5861 30.4264 84.4199Z" fill="#01C58E"/>
<path fill-rule="evenodd" clip-rule="evenodd" d="M98.9229 78.5159L69.6937 27.0237C69.3917 26.4823 67.7048 23.7437 64.7684 23.7437C63.4459 23.7437 61.5508 24.306 60.0096 27.0133L56.2297 33.636L59.5931 39.5505L64.7996 30.3351L93.7164 81.0775H82.7203C82.861 81.9163 82.7821 82.7773 82.4913 83.5766C82.43 83.7531 82.3533 83.9238 82.2622 84.0868L82.1685 84.2743C80.6898 86.7942 77.493 86.9296 76.8682 86.9296H94.0705C94.7057 86.9296 97.892 86.7942 99.3707 84.2743C100.027 83.1288 100.495 81.2024 98.9229 78.5159Z" fill="#108775"/>
<path fill-rule="evenodd" clip-rule="evenodd" d="M82.1685 84.274L82.2622 84.0866C82.3534 83.9236 82.43 83.7528 82.4913 83.5764C82.7821 82.7771 82.8611 81.9161 82.7204 81.0772C82.5583 80.1725 82.2337 79.3047 81.7624 78.5157L59.614 39.5503L56.2298 33.6357L52.8664 39.5503L30.7284 78.5157C30.2986 79.3141 30.0097 80.1806 29.8745 81.0772C29.6964 82.0667 29.8085 83.0866 30.1973 84.0137C30.2549 84.153 30.321 84.2886 30.3952 84.4198C31.0616 85.5652 32.4778 86.9293 35.6017 86.9293H76.837C77.493 86.9293 80.6898 86.794 82.1685 84.274ZM56.2298 45.4649L76.4726 81.0772H35.9974L56.2298 45.4649Z" fill="#2F495E"/>
</svg>
