<svg width="100" height="100" viewBox="0 0 100 100" fill="none" xmlns="http://www.w3.org/2000/svg">
<g clip-path="url(#clip0_2_507)">
<path d="M66.8485 79.1756C66.8485 83.1453 63.6303 86.3635 59.6606 86.3635C59.6576 86.3635 59.6576 86.3635 59.6545 86.3635C59.6242 86.3635 59.5879 86.3635 59.5545 86.3635C57.5939 86.3635 55.8182 85.5574 54.5455 84.2574C53.2333 82.9999 52.4152 81.2332 52.4152 79.2726C52.4152 79.2362 52.4152 79.1968 52.4152 79.1605V79.1665C52.4333 75.1756 55.6636 71.9484 59.6515 71.9271H59.6545H59.7606C61.7182 71.9271 63.4879 72.7423 64.7424 74.0544L64.7455 74.0574C66.0424 75.3302 66.8485 77.1029 66.8485 79.0605V79.1756ZM33.9939 79.1696V79.2756C33.9939 81.2332 33.1788 83.0029 31.8667 84.2574L31.8636 84.2605C30.5909 85.5574 28.8182 86.3635 26.8606 86.3635C26.8242 86.3635 26.7848 86.3635 26.7485 86.3635H26.7545C26.7545 86.3635 26.7515 86.3635 26.7485 86.3635C22.7788 86.3635 19.5606 83.1453 19.5606 79.1756C19.5606 79.1726 19.5606 79.1726 19.5606 79.1696C19.5606 79.1393 19.5606 79.1029 19.5606 79.0696C19.5606 77.109 20.3667 75.3332 21.6667 74.0605C22.9242 72.7484 24.6909 71.9302 26.6515 71.9302H26.7636H26.7576C30.7485 71.9483 33.9758 75.1787 33.997 79.1665L33.9939 79.1696ZM0 13.6362C1.51818 15.2484 3.1 16.7453 4.76364 18.1514L4.84848 18.2211C6.40303 19.512 8.13939 20.7029 9.98182 21.7302L10.1576 21.8211C11.8212 22.7726 13.7848 23.7029 15.8242 24.4847L16.1242 24.5847C18.1333 25.3362 20.5727 26.0241 23.0788 26.5271L23.397 26.5817C26.2475 27.1675 29.1717 27.6282 32.1697 27.9635C35.1677 28.2989 38.8232 28.5696 43.1364 28.7756C47.4495 28.9817 51.8939 29.1211 56.4697 29.1938C61.0455 29.2665 66.4919 29.3029 72.8091 29.3029C76.8737 29.3029 80.4485 29.3756 83.5333 29.5211C86.4667 29.6423 89.2061 29.9029 91.9 30.2999L91.4727 30.2484C93.5424 30.5393 95.3818 30.9635 97.1545 31.5271L96.9121 31.4605C98.1242 31.8029 99.1727 32.3999 100.033 33.1968L100.027 33.1938C100.624 33.7726 101.015 34.5635 101.079 35.4423V35.4544C101.07 36.4999 100.752 37.4726 100.212 38.2817L100.224 38.2635C99.4576 39.5302 98.6394 40.6271 97.7303 41.6393L97.7485 41.618C96.7101 42.8019 95.402 44.1332 93.8242 45.612C92.2465 47.0908 90.5495 48.6191 88.7333 50.1968C86.9172 51.7746 84.8848 53.514 82.6364 55.415C77.2263 60.0069 73.0444 63.618 70.0909 66.2483C71.1606 64.4332 72.2727 62.8665 73.503 61.4059L73.4606 61.4605C74.8485 59.7655 76.2222 58.2231 77.5818 56.8332C78.9414 55.4433 80.3232 54.0029 81.7273 52.512C83.1313 51.0211 84.3434 49.6827 85.3636 48.4968C86.2727 47.4726 87.0636 46.312 87.6909 45.0574L87.7333 44.9665C88.1212 44.2756 88.3485 43.4514 88.3485 42.5726C88.3485 42.3332 88.3303 42.0999 88.3 41.8696L88.303 41.8968C87.9818 40.8362 87.2667 39.9817 86.3303 39.4817L86.3091 39.4726C84.8364 38.618 83.1152 37.9877 81.2879 37.6847L81.2 37.6726C78.6242 37.1787 75.5485 36.809 72.4182 36.6484L72.2515 36.6423C68.5343 36.4079 64.0899 36.3352 58.9182 36.4241C54.0051 36.4827 49.4131 36.3948 45.1424 36.1605C40.8717 35.9261 37.1283 35.5898 33.9121 35.1514C30.4515 34.6877 27.4152 34.0605 24.4576 33.2362L24.9424 33.3514C22.0636 32.5787 19.7333 31.8029 17.4606 30.915L17.9455 31.0817C15.8788 30.2665 14.1121 29.3453 12.4515 28.2665L12.5697 28.3393C11.0485 27.3847 9.73939 26.4271 8.5 25.3847L8.55455 25.4302C7.47576 24.4696 6.5 23.4423 5.61818 22.3393L5.57879 22.2908C4.82424 21.3908 4.09394 20.3968 3.4303 19.3544L3.36364 19.2393C2.87879 18.4312 2.29394 17.4372 1.60909 16.2574C0.924242 15.0776 0.388889 14.2069 0.0030303 13.6453L0 13.6362Z" fill="#04B6F0"/>
</g>
<defs>
<clipPath id="clip0_2_507">
<rect width="100" height="100" fill="white"/>
</clipPath>
</defs>
</svg>
