<svg width="100" height="100" viewBox="0 0 100 100" fill="none" xmlns="http://www.w3.org/2000/svg">
<g clip-path="url(#clip0_2_576)">
<path d="M85 0H15C6.71573 0 0 6.71573 0 15V85C0 93.2843 6.71573 100 15 100H85C93.2843 100 100 93.2843 100 85V15C100 6.71573 93.2843 0 85 0Z" fill="#777BB3"/>
<path d="M30.2734 39.4531H18.9453C18.8185 39.4459 18.6928 39.4801 18.5871 39.5506C18.4814 39.621 18.4015 39.7239 18.3594 39.8437L13.0859 67.3828C13.0859 67.9687 13.6719 67.9687 13.6719 67.9687H19.5312C20.1172 67.9687 20.1172 67.5781 20.1172 67.5781L21.4844 60.7422H26.7578C34.9609 60.7422 39.0625 55.2734 40.0391 50.3906C41.0156 45.5078 40.2344 39.4531 30.2734 39.4531ZM32.8125 50C32.0312 53.7109 29.4922 55.2734 25.9766 55.2734H22.4609L24.6094 44.9218H28.125C33.3984 44.9218 33.2031 46.875 32.8125 50Z" fill="black" stroke="white" stroke-width="1.2"/>
<path d="M53.7109 60.7422C52.9297 60.7422 53.125 59.9609 53.125 59.9609L55.4688 48.0469C55.4688 46.4844 56.6406 44.9219 51.9531 45.1172H48.4375L45.5078 60.3516C45.5078 60.3516 45.5078 60.9375 44.7266 60.9375H39.0625C38.4766 60.9375 38.4766 60.3516 38.4766 60.3516L43.9453 32.8125C43.9453 32.8125 43.9453 32.4219 44.7266 32.4219H50.5859C51.1719 32.4219 50.9766 33.0078 50.9766 33.0078L49.6094 39.6484H54.6875C61.7188 39.6484 63.4766 42.9688 62.8906 46.875L60.3516 60.3516C60.3516 60.3516 60.3516 60.9375 59.375 60.9375L53.7109 60.7422Z" fill="black" stroke="white" stroke-width="1.2"/>
<path d="M76.9531 39.4531H65.625C65.4982 39.4459 65.3725 39.4801 65.2668 39.5506C65.1611 39.621 65.0812 39.7239 65.0391 39.8437L59.7656 67.3828C59.7656 67.9687 60.3516 67.9687 60.3516 67.9687H66.2109C66.7969 67.9687 66.7969 67.5781 66.7969 67.5781L68.1641 60.7422H73.4375C81.6406 60.7422 85.7422 55.2734 86.7188 50.3906C87.6953 45.5078 86.9141 39.4531 76.9531 39.4531ZM79.4922 50C78.7109 53.7109 76.1719 55.2734 72.6562 55.2734H69.1406L71.2891 44.9218H74.8047C80.0781 44.9218 79.8828 46.875 79.4922 50Z" fill="black" stroke="white" stroke-width="1.2"/>
</g>
<defs>
<clipPath id="clip0_2_576">
<rect width="100" height="100" fill="white"/>
</clipPath>
</defs>
</svg>
