<svg width="100" height="100" viewBox="0 0 100 100" fill="none" xmlns="http://www.w3.org/2000/svg">
<path d="M66.4533 93.75C65.5058 93.7497 64.5655 93.5837 63.6752 93.2594L11.6596 74.375C10.6485 74.0083 9.71963 73.4458 8.92623 72.7197C8.13283 71.9936 7.49045 71.118 7.03588 70.1433C6.5813 69.1686 6.32347 68.1137 6.27713 67.0392C6.23079 65.9647 6.39685 64.8915 6.76582 63.8813L25.8533 11.6219C26.5993 9.58944 28.1197 7.93501 30.082 7.02031C32.0443 6.10562 34.289 6.00507 36.3252 6.74065L88.3439 25.625C89.355 25.9917 90.2839 26.5542 91.0773 27.2803C91.8707 28.0065 92.5131 28.882 92.9676 29.8567C93.4222 30.8315 93.68 31.8863 93.7264 32.9609C93.7727 34.0354 93.6067 35.1085 93.2377 36.1188L91.5971 40.6094C91.3815 41.209 91.0113 41.7409 90.524 42.1514C90.0367 42.5619 89.4496 42.8363 88.8221 42.9469C88.2065 43.0635 87.571 43.0153 86.98 42.8073C86.389 42.5993 85.8634 42.2389 85.4564 41.7625C84.4189 40.5745 83.1372 39.6245 81.6988 38.9773C80.2604 38.3301 78.6993 38.001 77.1221 38.0125H77.0814C74.2781 37.9656 71.5705 39.032 69.5519 40.9779C67.5334 42.9238 66.3685 45.5906 66.3127 48.3938C66.3856 51.1907 67.5623 53.8452 69.5859 55.7774C71.6094 57.7096 74.3154 58.7625 77.1127 58.7063H77.1533C77.8581 58.7042 78.5612 58.6362 79.2533 58.5031C79.8751 58.3795 80.5187 58.4257 81.1165 58.6369C81.7142 58.8481 82.244 59.2164 82.6502 59.7031C83.0695 60.1958 83.3509 60.7908 83.4656 61.4276C83.5803 62.0643 83.5243 62.7201 83.3033 63.3281L74.1408 88.4156C73.5567 89.9829 72.5072 91.334 71.133 92.2875C69.7589 93.241 68.1259 93.7514 66.4533 93.75ZM33.5439 8.97502C32.4254 8.97551 31.334 9.31916 30.417 9.95957C29.4999 10.6 28.8015 11.5063 28.4158 12.5563L9.3252 64.8313C9.07968 65.5047 8.96933 66.2199 9.00044 66.9359C9.03156 67.652 9.20355 68.3549 9.50656 69.0045C9.80957 69.6541 10.2377 70.2375 10.7664 70.7215C11.295 71.2054 11.914 71.5804 12.5877 71.825L64.6064 90.6938C65.9642 91.1843 67.461 91.1171 68.7693 90.5069C70.0777 89.8967 71.091 88.793 71.5877 87.4375L80.7502 62.35C80.8054 62.1951 80.8189 62.0283 80.7893 61.8665C80.7597 61.7047 80.688 61.5535 80.5814 61.4281C80.4866 61.3105 80.3612 61.2212 80.219 61.1699C80.0768 61.1187 79.9233 61.1075 79.7752 61.1375C78.9152 61.303 78.0416 61.3877 77.1658 61.3906H77.1158C73.5988 61.446 70.2026 60.1078 67.6687 57.6681C65.1347 55.2284 63.6688 51.8854 63.5908 48.3688C63.6427 44.8415 65.0915 41.4788 67.6193 39.0183C70.1472 36.5578 73.5478 35.2004 77.0752 35.2438H77.1252C79.0958 35.2341 81.0452 35.6502 82.8402 36.4635C84.6351 37.2769 86.2332 38.4683 87.5252 39.9563C87.6236 40.0709 87.7507 40.1573 87.8934 40.2067C88.0362 40.2562 88.1895 40.2668 88.3377 40.2375C88.4968 40.2103 88.6457 40.1413 88.7693 40.0375C88.8929 39.9337 88.9866 39.7989 89.0408 39.6469L90.6814 35.1594C90.9274 34.4858 91.0382 33.7703 91.0073 33.0539C90.9764 32.3375 90.8045 31.6342 90.5015 30.9843C90.1984 30.3343 89.7702 29.7506 89.2412 29.2664C88.7123 28.7822 88.0931 28.4071 87.4189 28.1625L35.3971 9.30315C34.8032 9.08658 34.1761 8.97554 33.5439 8.97502Z" fill="black"/>
<path d="M77.119 54.6876C75.4319 54.6905 73.8128 54.0231 72.6179 52.8322C71.4229 51.6414 70.75 50.0246 70.7471 48.3376C70.7442 46.6505 71.4116 45.0315 72.6024 43.8365C73.7933 42.6415 75.4101 41.9686 77.0971 41.9657C77.933 41.9567 78.7623 42.1155 79.5358 42.4328C80.3093 42.75 81.0113 43.2192 81.6002 43.8126C82.4923 44.6993 83.1016 45.8305 83.351 47.0633C83.6004 48.2962 83.4789 49.5753 83.0017 50.739C82.5245 51.9028 81.713 52.899 80.6698 53.6018C79.6267 54.3046 78.3986 54.6824 77.1408 54.6876H77.119ZM77.119 45.1469C76.2929 45.1728 75.5094 45.5192 74.9342 46.1127C74.359 46.7062 74.0374 47.5002 74.0374 48.3266C74.0374 49.1531 74.359 49.9471 74.9342 50.5406C75.5094 51.1341 76.2929 51.4804 77.119 51.5063C77.945 51.4804 78.7286 51.1341 79.3037 50.5406C79.8789 49.9471 80.2005 49.1531 80.2005 48.3266C80.2005 47.5002 79.8789 46.7062 79.3037 46.1127C78.7286 45.5192 77.945 45.1728 77.119 45.1469Z" fill="black"/>
<path d="M66.5314 91.3251C65.8855 91.3251 65.2446 91.2119 64.6377 90.9907L12.3752 72.0064C10.9897 71.4988 9.86247 70.4618 9.24131 69.1234C8.62015 67.7849 8.5559 66.2546 9.06269 64.8689L28.2096 12.322C28.7168 10.938 29.7515 9.81127 31.0873 9.18816C32.4231 8.56506 33.9513 8.49632 35.3377 8.99699L87.6002 27.9814C88.2884 28.2302 88.9209 28.6124 89.4613 29.106C90.0016 29.5996 90.4393 30.1949 90.7494 30.8579C91.0594 31.5208 91.2356 32.2384 91.2679 32.9696C91.3002 33.7008 91.188 34.4311 90.9377 35.1189L89.2658 39.6876C89.2048 39.8547 89.101 40.003 88.9649 40.1175C88.8287 40.2321 88.665 40.309 88.4899 40.3406C88.3147 40.3723 88.1344 40.3574 87.9668 40.2977C87.7992 40.238 87.6502 40.1354 87.5346 40.0001C86.2437 38.506 84.6445 37.3092 82.8471 36.492C81.0496 35.6747 79.0965 35.2564 77.1221 35.2657C73.599 35.2105 70.1978 36.5546 67.6642 39.0033C65.1306 41.4519 63.6714 44.8053 63.6064 48.3282C63.6714 51.8511 65.1306 55.2045 67.6642 57.6532C70.1978 60.1019 73.599 61.4459 77.1221 61.3907C78.0199 61.3911 78.9156 61.3052 79.7971 61.1345C79.9744 61.0996 80.1577 61.1126 80.3284 61.1719C80.4991 61.2313 80.6509 61.335 80.7682 61.4724C80.8856 61.6098 80.9643 61.776 80.9963 61.9538C81.0282 62.1317 81.0123 62.3148 80.9502 62.4845L71.7658 87.672C71.3719 88.7433 70.6588 89.668 69.7228 90.3213C68.7868 90.9745 67.6729 91.3249 66.5314 91.3251ZM33.4377 9.79699C32.5286 9.79731 31.6416 10.0768 30.8966 10.5977C30.1515 11.1186 29.5845 11.8558 29.2721 12.7095L10.1158 65.2595C9.91654 65.8061 9.82694 66.3866 9.85213 66.9679C9.87732 67.5491 10.0168 68.1197 10.2626 68.647C10.5084 69.1744 10.8558 69.6481 11.2847 70.0411C11.7137 70.4341 12.2159 70.7388 12.7627 70.9376L65.0252 89.922C66.1288 90.3217 67.3459 90.2676 68.4097 89.7714C69.4735 89.2753 70.2972 88.3776 70.7002 87.2751L79.8158 62.2751C78.9279 62.4351 78.0274 62.5156 77.1252 62.5157C73.301 62.5709 69.611 61.1074 66.8641 58.4461C64.1173 55.7848 62.5378 52.1429 62.4721 48.3189C62.5387 44.4954 64.1185 40.8543 66.8652 38.1936C69.6119 35.533 73.3015 34.0699 77.1252 34.1251C79.2299 34.1162 81.3124 34.5559 83.2339 35.4148C85.1554 36.2737 86.8719 37.5322 88.2689 39.1064L89.8627 34.7314C90.2621 33.6282 90.2073 32.4116 89.7105 31.3487C89.2136 30.2859 88.3153 29.4637 87.2127 29.0626L34.9502 10.0626C34.4654 9.88628 33.9535 9.79638 33.4377 9.79699Z" fill="#6873CF"/>
<path d="M63.0406 48.3219C63.1006 44.6463 64.6181 41.145 67.2594 38.5881C69.9006 36.0313 73.4493 34.6282 77.1249 34.6875C79.1815 34.6782 81.2157 35.1145 83.0876 35.9663C84.9595 36.8181 86.6247 38.0652 87.9687 39.6219C88.0201 39.6818 88.0864 39.727 88.1609 39.7532C88.2354 39.7793 88.3154 39.7854 88.393 39.7708C88.4705 39.7563 88.5429 39.7216 88.6028 39.6702C88.6627 39.6188 88.7081 39.5526 88.7343 39.4782L90.3968 34.9188C90.6215 34.3018 90.7225 33.6466 90.694 32.9905C90.6655 32.3345 90.508 31.6905 90.2306 31.0953C89.9532 30.5002 89.5612 29.9655 89.0772 29.5218C88.5931 29.0781 88.0264 28.7341 87.4093 28.5094L35.1468 9.5313C33.9047 9.08038 32.5345 9.13953 31.3359 9.69583C30.1372 10.2521 29.2075 11.2603 28.7499 12.5L9.5812 65.0625C9.35648 65.6795 9.25549 66.3348 9.28402 66.9908C9.31254 67.6468 9.47 68.2908 9.74742 68.886C10.0248 69.4812 10.4168 70.0159 10.9009 70.4596C11.3849 70.9033 11.9517 71.2473 12.5687 71.4719L64.8312 90.4563C66.0761 90.9084 67.4495 90.848 68.65 90.2885C69.8505 89.729 70.7799 88.716 71.2343 87.4719L80.4187 62.2844C80.446 62.2093 80.4529 62.1283 80.4387 62.0496C80.4246 61.971 80.3899 61.8975 80.3382 61.8365C80.2865 61.7756 80.2196 61.7295 80.1442 61.7027C80.0689 61.676 79.9879 61.6697 79.9093 61.6844C78.992 61.8631 78.0595 61.9531 77.1249 61.9532C73.4498 62.0125 69.9016 60.6099 67.2604 58.0537C64.6193 55.4975 63.1014 51.997 63.0406 48.3219Z" fill="url(#paint0_linear_2_518)"/>
<path d="M86.9086 50.4383L85.3154 53.7048L89.947 55.9638L91.5402 52.6973L86.9086 50.4383Z" fill="black"/>
<defs>
<linearGradient id="paint0_linear_2_518" x1="49.9874" y1="9.22817" x2="49.9874" y2="90.7594" gradientUnits="userSpaceOnUse">
<stop stop-color="#808DFF"/>
<stop offset="0.298" stop-color="#838FFF"/>
<stop offset="0.478" stop-color="#8B96FF"/>
<stop offset="0.626" stop-color="#99A2FF"/>
<stop offset="0.756" stop-color="#ADB2FF"/>
<stop offset="0.875" stop-color="#C7C8FF"/>
<stop offset="0.9" stop-color="#CECDFF"/>
</linearGradient>
</defs>
</svg>
