<svg width="100" height="100" viewBox="0 0 100 100" fill="none" xmlns="http://www.w3.org/2000/svg">
<path d="M98.1092 59.8808C97.5278 58.1201 96.0048 56.8936 94.0349 56.5991C93.1062 56.4605 92.0424 56.5196 90.7838 56.7791C88.59 57.2317 86.9624 57.404 85.7746 57.4376C90.258 49.8674 93.9039 41.2347 96.0027 33.1085C99.3965 19.969 97.5829 13.983 95.4637 11.2753C89.8551 4.10892 81.6723 0.258802 71.8 0.140781C66.534 0.0765079 61.9106 1.1163 59.4991 1.86384C57.2536 1.4679 54.839 1.24664 52.3055 1.20566C47.5571 1.12996 43.3612 2.16505 39.776 4.29256C37.7907 3.62161 34.6055 2.67543 30.9267 2.07144C22.2742 0.650936 15.3009 1.75791 10.2002 5.36124C4.02374 9.72421 1.16034 17.3044 1.68997 27.8916C1.85793 31.253 3.73843 41.4801 6.69903 51.1795C8.40059 56.7543 10.215 61.384 12.0919 64.9407C14.7536 69.9843 17.6015 72.9545 20.7988 74.0209C22.5911 74.6182 25.8471 75.0361 29.2719 72.1843C29.7059 72.7097 30.2848 73.2322 31.0536 73.7173C32.0296 74.3329 33.2233 74.8359 34.4151 75.134C38.7111 76.208 42.735 75.9393 46.1679 74.4341C46.189 75.0446 46.2053 75.628 46.2192 76.1317C46.2421 76.9488 46.2645 77.7499 46.2945 78.499C46.4978 83.5652 46.8425 87.5042 47.8637 90.2601C47.9197 90.412 47.9951 90.6428 48.0749 90.8876C48.5841 92.4476 49.4362 95.0589 51.6034 97.1042C53.848 99.2225 56.5627 99.8724 59.049 99.8722C60.2959 99.8722 61.4858 99.7087 62.5292 99.485C66.2492 98.688 70.4737 97.4733 73.5297 93.122C76.4189 89.0082 77.8235 82.8125 78.0777 73.0497C78.1106 72.7738 78.1411 72.5102 78.1704 72.2589C78.1901 72.0894 78.2103 71.916 78.2306 71.7432L78.9114 71.803L79.0868 71.8148C82.8756 71.9875 87.5082 71.184 90.3532 69.8624C92.6014 68.8191 99.8054 65.016 98.1092 59.8808Z" fill="black"/>
<path d="M91.631 60.8795C80.366 63.2032 79.5915 59.3892 79.5915 59.3892C91.4857 41.7402 96.4578 19.3375 92.1669 13.8546C80.4611 -1.1018 60.1978 5.97161 59.8597 6.15525L59.7508 6.17473C57.5252 5.71273 55.0345 5.4375 52.2351 5.39181C47.1378 5.30828 43.2714 6.72811 40.3374 8.95304C40.3374 8.95304 4.18966 -5.93842 5.87084 27.6819C6.22849 34.8343 16.1223 81.8006 27.9233 67.6146C32.2365 62.4272 36.404 58.0412 36.404 58.0412C38.4739 59.4162 40.9519 60.1177 43.5497 59.8657L43.7515 59.6944C43.6888 60.3385 43.7175 60.9684 43.8324 61.7142C40.7922 65.1108 41.6856 65.7072 35.6083 66.9582C29.4589 68.2255 33.0714 70.4818 35.43 71.0714C38.2894 71.7865 44.9046 72.7994 49.3744 66.5423L49.1961 67.2562C50.3873 68.2103 51.2238 73.4621 51.0836 78.2228C50.9434 82.9837 50.8498 86.2522 51.7883 88.8052C52.7269 91.3582 53.6623 97.1025 61.6515 95.3907C68.3272 93.9601 71.7865 90.2528 72.2678 84.0689C72.6093 79.6726 73.3821 80.3225 73.4309 76.392L74.0508 74.5312C74.7657 68.5717 74.1644 66.6491 78.2772 67.5433L79.2767 67.6311C82.3038 67.7689 86.2657 67.1443 88.5909 66.0635C93.598 63.7398 96.5675 59.8601 91.6306 60.8795H91.631Z" fill="#336791"/>
<path d="M42.4532 30.8807C41.4383 30.7394 40.5187 30.8701 40.0536 31.2222C39.7918 31.4204 39.7109 31.6499 39.6892 31.808C39.6308 32.2266 39.9241 32.6893 40.1042 32.928C40.6139 33.6037 41.3588 34.0681 42.096 34.1705C42.2028 34.1853 42.309 34.1924 42.4147 34.1924C43.6441 34.1924 44.7616 33.2353 44.8602 32.5287C44.9834 31.6439 43.6988 31.054 42.4532 30.8807Z" fill="white"/>
<path d="M76.0834 30.9086C75.9867 30.2151 74.752 30.0173 73.5808 30.1801C72.4113 30.3432 71.277 30.871 71.3718 31.5662C71.4479 32.1068 72.4236 33.0297 73.5792 33.0294C73.6766 33.0294 73.7752 33.0229 73.8744 33.0091C74.6457 32.9022 75.2116 32.4125 75.4803 32.1301C75.8899 31.7001 76.1266 31.2204 76.0834 30.9086Z" fill="white"/>
<path d="M95.3796 60.6156C94.95 59.3167 93.5676 58.8985 91.2706 59.3731C84.4504 60.7806 82.008 59.8055 81.2059 59.215C86.5072 51.139 90.8681 41.3773 93.2207 32.2691C94.3353 27.9547 94.9509 23.948 95.0011 20.6824C95.0566 17.0974 94.4464 14.4636 93.1871 12.8545C88.1104 6.36762 80.6599 2.88813 71.6408 2.79251C65.4406 2.72286 60.202 4.30976 59.1863 4.75586C57.0476 4.22398 54.7161 3.89747 52.1781 3.85581C47.5233 3.78057 43.5001 4.89493 40.1689 7.16622C38.7219 6.62785 34.9824 5.34418 30.4096 4.60761C22.5034 3.33446 16.2209 4.29901 11.7375 7.47527C6.3878 11.2654 3.9181 18.0403 4.39668 27.6114C4.5577 30.8318 6.39228 40.7377 9.28794 50.2246C13.0993 62.7108 17.2421 69.7795 21.6015 71.2334C22.1117 71.4036 22.7002 71.5227 23.3488 71.5227C24.939 71.5227 26.8885 70.8059 28.917 68.3673C32.2863 64.3138 35.4321 60.9172 36.5917 59.683C38.3054 60.603 40.1877 61.1165 42.1134 61.168C42.1168 61.2184 42.1219 61.2688 42.1264 61.319C41.7401 61.7772 41.4232 62.1787 41.1531 62.5216C39.8191 64.2151 39.5414 64.5676 35.2469 65.452C34.0255 65.7039 30.7807 66.3726 30.7335 68.6468C30.6817 71.1315 34.5684 72.1751 35.0113 72.2857C36.5546 72.672 38.0411 72.8626 39.4589 72.8626C42.9073 72.8624 45.9416 71.7292 48.3667 69.5365C48.2919 78.3948 48.6614 87.1237 49.725 89.7833C50.5959 91.9603 52.7241 97.2813 59.4464 97.2809C60.4324 97.2809 61.5183 97.1662 62.7126 96.9102C69.728 95.406 72.7744 92.3054 73.9531 85.4696C74.5837 81.8163 75.666 73.0922 76.1749 68.4128C77.2491 68.7478 78.6322 68.9012 80.1273 68.901C83.2456 68.901 86.8435 68.2385 89.1 67.1911C91.6347 66.0141 96.2091 63.1251 95.3796 60.6156ZM78.6728 28.994C78.6495 30.3756 78.4594 31.6297 78.2578 32.9389C78.041 34.3468 77.8166 35.8025 77.7602 37.5697C77.7044 39.2894 77.9192 41.0774 78.127 42.8063C78.5467 46.2985 78.9773 49.894 77.3101 53.4418C77.0509 52.9816 76.8008 52.4795 76.5715 51.9234C76.3643 51.4211 75.9144 50.6142 75.2916 49.4974C72.8676 45.1506 67.1914 34.9712 70.0971 30.8174C70.9625 29.5808 73.1589 28.3099 78.6728 28.994ZM71.9895 5.59007C80.0704 5.76856 86.4626 8.79164 90.9886 14.5749C94.4598 19.0109 90.6374 39.1953 79.5719 56.6084C79.4626 56.4696 79.3513 56.3294 79.2362 56.1856C79.1903 56.1281 79.1435 56.0696 79.0963 56.0105C81.9556 51.2881 81.3964 46.6159 80.8988 42.4733C80.6944 40.7733 80.5013 39.1676 80.5504 37.6595C80.6012 36.0605 80.8126 34.6897 81.0168 33.3639C81.2683 31.73 81.5239 30.0396 81.4533 28.0467C81.5059 27.8378 81.5272 27.5908 81.4997 27.2976C81.3196 25.3864 79.1379 19.6675 74.6907 14.4905C72.2584 11.6593 68.7109 8.49065 63.8673 6.35351C65.9507 5.92174 68.7998 5.51908 71.9895 5.59007ZM26.7705 66.5824C24.5357 69.2694 22.9922 68.7545 22.4848 68.5854C19.1777 67.4823 15.3408 60.4931 11.9579 49.4096C9.03062 39.8195 7.31988 30.176 7.18461 27.4719C6.7571 18.9197 8.83019 12.9593 13.3466 9.75641C20.6965 4.54401 32.7808 7.66383 37.6365 9.24625C37.5666 9.31501 37.494 9.3795 37.4248 9.44937C29.457 17.4965 29.646 31.2452 29.6655 32.0854C29.6648 32.4097 29.6919 32.8688 29.7293 33.5003C29.8663 35.8126 30.1214 40.1164 29.4399 44.9904C28.8064 49.5196 30.2025 53.9526 33.2697 57.1529C33.5872 57.4841 33.9187 57.7952 34.2611 58.0879C32.8957 59.55 29.9286 62.7832 26.7705 66.5824ZM35.2852 55.2213C32.8131 52.6421 31.6904 49.0542 32.2046 45.377C32.9244 40.2282 32.6585 35.7441 32.5159 33.335C32.4959 32.998 32.4783 32.7026 32.4677 32.4695C33.6318 31.4375 39.0261 28.547 42.8728 29.4285C44.6286 29.8307 45.6979 31.0259 46.1427 33.0822C48.4444 43.7272 46.4475 48.164 44.8429 51.7293C44.5121 52.4638 44.1997 53.1581 43.9328 53.8765L43.7261 54.4317C43.2025 55.8356 42.7154 57.1408 42.4135 58.3803C39.7857 58.3723 37.2291 57.2498 35.2852 55.2213ZM35.6886 69.5775C34.9213 69.3858 34.2311 69.0528 33.8262 68.7767C34.1644 68.6175 34.7663 68.4011 35.8102 68.1861C40.8622 67.1459 41.6422 66.412 43.346 64.2487C43.7368 63.7529 44.1796 63.1905 44.7927 62.5057L44.7934 62.5048C45.7069 61.4822 46.1246 61.6556 46.8822 61.9698C47.4962 62.224 48.0942 62.9934 48.3367 63.8404C48.4514 64.2404 48.5804 64.9998 48.1587 65.5903C44.5995 70.5737 39.4133 70.5096 35.6886 69.5775ZM62.1275 94.1807C55.9472 95.5049 53.759 92.3515 52.317 88.7466C51.3862 86.4191 50.9289 75.9242 51.2534 64.3347C51.2577 64.1804 51.2357 64.0314 51.1932 63.8915C51.1562 63.6212 51.0993 63.3477 51.0205 63.0725C50.5377 61.3862 49.3617 59.9755 47.9509 59.3908C47.3903 59.1585 46.3613 58.7324 45.1248 59.0486C45.3887 57.9622 45.846 56.7357 46.3416 55.4072L46.5496 54.8482C46.7839 54.2182 47.0775 53.5657 47.3883 52.875C49.0675 49.1445 51.3672 44.0351 48.8713 32.4921C47.9363 28.1688 44.8145 26.0576 40.0818 26.5478C37.2443 26.8414 34.6488 27.9863 33.3541 28.6427C33.0757 28.7837 32.8211 28.9199 32.5833 29.0527C32.9445 24.6965 34.3099 16.5557 39.4168 11.4051C42.6321 8.16234 46.9144 6.56089 52.132 6.64711C62.4123 6.81552 69.0047 12.0913 72.7252 16.4876C75.931 20.2762 77.667 24.0922 78.3599 26.1503C73.1498 25.6207 69.6062 26.6493 67.8097 29.2173C63.9018 34.8035 69.9477 45.6462 72.8535 50.857C73.3862 51.8121 73.8462 52.6374 73.9909 52.9881C74.9371 55.2813 76.1621 56.8122 77.0565 57.93C77.3307 58.2724 77.5967 58.6045 77.7989 58.8945C76.221 59.3496 73.3865 60.4006 73.6447 65.6546C73.4364 68.2912 71.9548 80.6343 71.2023 84.9953C70.2089 90.7566 68.0887 92.9027 62.1275 94.1807ZM87.9245 64.6592C86.311 65.4083 83.6106 65.9702 81.0453 66.0906C78.2119 66.2234 76.7697 65.7733 76.4304 65.4965C76.2709 62.2224 77.4899 61.8802 78.7796 61.5181C78.9823 61.461 79.18 61.4056 79.3708 61.3389C79.4895 61.4354 79.6194 61.5313 79.7616 61.6251C82.0389 63.1283 86.1009 63.2904 91.8351 62.1068C91.8562 62.1024 91.8772 62.0983 91.8981 62.0941C91.1248 62.8172 89.8012 63.7878 87.9245 64.6592Z" fill="white"/>
</svg>
