<svg width="100" height="100" viewBox="0 0 100 100" fill="none" xmlns="http://www.w3.org/2000/svg">
<g clip-path="url(#clip0_2_534)">
<path d="M96.0819 73.0249C90.7454 75.8066 63.1 87.1733 57.2143 90.2414C51.329 93.3103 48.0593 93.2806 43.4099 91.0578C38.7606 88.8351 9.34092 76.9515 4.04153 74.4186C1.39262 73.1526 0 72.0842 0 71.0748V60.9671C0 60.9671 38.3004 52.6289 44.4838 50.4109C50.6668 48.1924 52.8122 48.1124 58.0741 50.0398C63.3364 51.9676 94.7994 57.6443 100 59.549C100 59.549 99.9977 68.5767 99.9977 69.5138C99.9984 70.5131 98.7984 71.6092 96.0819 73.0249Z" fill="#912626"/>
<path d="M96.08 62.9766C90.7437 65.7571 63.0992 77.1242 57.2137 80.1922C51.3285 83.2614 48.059 83.2313 43.4098 81.0086C38.7602 78.7875 9.34185 66.902 4.04264 64.3704C-1.25658 61.8371 -1.36791 60.0938 3.83795 58.0555C9.04341 56.0165 38.3004 44.538 44.4844 42.3196C50.6672 40.102 52.8121 40.0212 58.0738 41.9493C63.3359 43.8766 90.8156 54.8145 96.0156 56.7188C101.217 58.6254 101.416 60.195 96.08 62.9766Z" fill="#C6302B"/>
<path d="M96.0819 56.6697C90.7454 59.4515 63.1 70.8182 57.2143 73.8875C51.329 76.9551 48.0593 76.9254 43.4099 74.7027C38.7602 72.4812 9.34092 60.5964 4.04153 58.0635C1.39262 56.7975 0 55.7302 0 54.7208V44.6119C0 44.6119 38.3004 36.2742 44.4838 34.0557C50.6668 31.8377 52.8122 31.7572 58.0741 33.6846C63.3364 35.6124 94.7994 41.288 100 43.1931C100 43.1931 99.9977 52.2208 99.9977 53.1591C99.9984 54.1579 98.7984 55.2541 96.0819 56.6697Z" fill="#912626"/>
<path d="M96.08 46.6217C90.7437 49.4029 63.0992 60.7693 57.2137 63.8385C51.3285 66.9064 48.059 66.8763 43.4098 64.6537C38.7602 62.4326 9.34185 50.5475 4.04264 48.0154C-1.25658 45.483 -1.36791 43.7393 3.83795 41.7002C9.04341 39.6623 38.3004 28.183 44.4844 25.9651C50.6672 23.7471 52.8121 23.6666 58.0738 25.5944C63.3359 27.5217 90.8156 38.4588 96.0156 40.3639C101.217 42.2697 101.416 43.8404 96.08 46.6217Z" fill="#C6302B"/>
<path d="M96.0819 39.7082C90.7454 42.49 63.1 53.8571 57.2143 56.9264C51.329 59.9944 48.0593 59.9643 43.4099 57.7416C38.7602 55.5201 9.34092 43.6349 4.04153 41.1028C1.39262 39.8364 0 38.7688 0 37.7601V27.6508C0 27.6508 38.3004 19.3135 44.4838 17.0954C50.6668 14.877 52.8122 14.7969 58.0741 16.7243C63.3364 18.6521 94.7994 24.3277 100 26.2328C100 26.2328 99.9977 35.2605 99.9977 36.1984C99.9984 37.1964 98.7984 38.2926 96.0819 39.7082Z" fill="#912626"/>
<path d="M96.08 29.66C90.7437 32.4413 63.0992 43.8085 57.2137 46.8768C51.3285 49.9448 48.059 49.9147 43.4098 47.6928C38.7606 45.471 9.34185 33.5866 4.04264 31.0542C-1.25658 28.5217 -1.36791 26.7776 3.83795 24.7389C9.04341 22.7007 38.3004 11.2225 44.4844 9.0038C50.6672 6.78544 52.8121 6.70575 58.0738 8.63349C63.3359 10.5612 90.8156 21.4983 96.0156 23.4034C101.217 25.3081 101.416 26.8788 96.08 29.66Z" fill="#C6302B"/>
<path d="M62.2199 19.8271L53.6226 20.7197L51.6978 25.3507L48.5889 20.1829L38.6614 19.2906L46.0691 16.6193L43.8467 12.5186L50.7819 15.231L57.3203 13.0903L55.5532 17.3306L62.2199 19.8271Z" fill="white"/>
<path d="M51.1842 42.2949L35.1384 35.6399L58.1311 32.1108L51.1842 42.2949Z" fill="white"/>
<path d="M28.9381 22.4011C35.7253 22.4011 41.2272 24.5341 41.2272 27.1647C41.2272 29.7957 35.7253 31.9283 28.9381 31.9283C22.1513 31.9283 16.6489 29.7957 16.6489 27.1647C16.6489 24.5341 22.1513 22.4011 28.9381 22.4011Z" fill="white"/>
<path d="M72.3809 21.093L85.9886 26.4705L72.3925 31.8426L72.3809 21.093Z" fill="#621B1C"/>
<path d="M57.3262 27.0481L72.3808 21.093L72.3924 31.8426L70.9165 32.4201L57.3262 27.0481Z" fill="#9A2928"/>
</g>
<defs>
<clipPath id="clip0_2_534">
<rect width="100" height="100" fill="white"/>
</clipPath>
</defs>
</svg>
