<svg width="100" height="100" viewBox="0 0 100 100" fill="none" xmlns="http://www.w3.org/2000/svg">
<g clip-path="url(#clip0_2_547)">
<path fill-rule="evenodd" clip-rule="evenodd" d="M100 50.0005C100 77.6135 77.6138 99.9996 49.9995 99.9996C22.3851 99.9996 0 77.6138 0 50.0005C0 22.3855 22.3848 0 49.9991 0C77.6135 0 100 22.3855 100 50.0005ZM16.0006 43.3253C12.313 43.3253 9.32496 46.3133 9.32496 50.0009C9.32496 53.687 12.313 56.6754 16.0006 56.6754C19.6867 56.6754 22.6751 53.687 22.6751 50.0009C22.6751 46.3129 19.6871 43.3253 16.0006 43.3253ZM63.6632 73.6648C60.4703 75.5081 59.3773 79.589 61.2199 82.7806C63.0635 85.9736 67.1441 87.0672 70.3371 85.2239C73.529 83.381 74.6226 79.3001 72.7794 76.1075C70.9364 72.9159 66.8552 71.8219 63.6632 73.6648ZM30.5004 49.9998C30.5004 43.4025 33.7788 37.5754 38.7921 34.0469L33.9118 25.872C28.0698 29.7751 23.7243 35.742 21.9191 42.7305C24.0277 44.4492 25.3749 47.0665 25.3749 50.0005C25.3749 52.9339 24.0277 55.5511 21.9188 57.2695C23.7236 64.2587 28.0694 70.2256 33.9114 74.1284L38.7921 65.9528C33.7788 62.425 30.5004 56.5982 30.5004 49.9998ZM50.0002 30.5001C60.1873 30.5001 68.5436 38.3109 69.4195 48.2705L78.9332 48.1315C78.4651 40.7782 75.253 34.1749 70.3166 29.3218C67.7787 30.2806 64.8468 30.1353 62.3128 28.672C59.7756 27.2072 58.1835 24.7364 57.7475 22.0549C55.2809 21.3723 52.6848 21.0001 50.0005 21.0001C45.3841 21.0001 41.0227 22.0839 37.1485 24.003L41.7861 32.3144C44.2827 31.1527 47.0647 30.5001 50.0002 30.5001ZM50.0002 69.4999C47.0644 69.4999 44.2827 68.8473 41.7858 67.6856L37.1474 75.9977C41.022 77.9161 45.3837 79.0002 50.0002 79.0002C52.6845 79.0002 55.2805 78.628 57.7475 77.9454C58.1835 75.264 59.776 72.7931 62.3135 71.3273C64.8475 69.8647 67.7794 69.7194 70.3173 70.6786C75.2534 65.8251 78.4654 59.2218 78.9328 51.8685L69.4192 51.7295C68.5439 61.6905 60.1873 69.4999 50.0002 69.4999ZM63.6622 26.3345C66.8548 28.1784 70.9361 27.0845 72.7786 23.8929C74.6223 20.6999 73.5294 16.619 70.3364 14.7754C67.1441 12.9325 63.0632 14.0261 61.2195 17.2191C59.3766 20.4106 60.4702 24.4919 63.6622 26.3345Z" fill="#DD4814"/>
</g>
<defs>
<clipPath id="clip0_2_547">
<rect width="100" height="100" fill="white"/>
</clipPath>
</defs>
</svg>
