<svg width="100" height="100" viewBox="0 0 100 100" fill="none" xmlns="http://www.w3.org/2000/svg">
<path d="M49.8868 44.3312C45.9819 44.3312 43.1664 46.8779 43.1664 50.6979C43.1664 54.5179 46.3356 57.0646 50.2405 57.0646C52.5997 57.0646 54.6795 56.1308 55.967 54.5568L53.2612 52.9935C52.5467 53.7752 51.4608 54.2314 50.2405 54.2314C48.5463 54.2314 47.1067 53.3472 46.5726 51.9323H56.4834C56.5613 51.5362 56.6072 51.1259 56.6072 50.6944C56.6072 46.8779 53.7917 44.3312 49.8868 44.3312ZM46.5407 49.4599C46.9829 48.0486 48.1926 47.1608 49.8833 47.1608C51.5775 47.1608 52.7872 48.0486 53.2258 49.4599H46.5407ZM87.974 44.3312C84.069 44.3312 81.2535 46.8779 81.2535 50.6979C81.2535 54.5179 84.4228 57.0646 88.3277 57.0646C90.6869 57.0646 92.7667 56.1308 94.0542 54.5568L91.3483 52.9935C90.6338 53.7752 89.548 54.2314 88.3277 54.2314C86.6334 54.2314 85.1938 53.3472 84.6597 51.9323H94.5706C94.6484 51.5362 94.6944 51.1259 94.6944 50.6944C94.6944 46.8779 91.8789 44.3312 87.974 44.3312ZM84.6314 49.4599C85.0736 48.0486 86.2832 47.1608 87.974 47.1608C89.6682 47.1608 90.8779 48.0486 91.3165 49.4599H84.6314ZM70.8263 50.6979C70.8263 52.8201 72.2128 54.235 74.3633 54.235C75.8206 54.235 76.9136 53.5735 77.4759 52.4947L80.1924 54.0617C79.0676 55.9363 76.9595 57.0646 74.3633 57.0646C70.4549 57.0646 67.6429 54.5179 67.6429 50.6979C67.6429 46.8779 70.4584 44.3312 74.3633 44.3312C76.9595 44.3312 79.0641 45.4595 80.1924 47.3342L77.4759 48.9011C76.9136 47.8223 75.8206 47.1608 74.3633 47.1608C72.2163 47.1608 70.8263 48.5757 70.8263 50.6979ZM100 40.4404V56.7109H96.8166V40.4404H100ZM13.0695 38.6719L26.1389 61.3091H0L13.0695 38.6719ZM45.7449 40.4404L35.9437 57.4183L26.1425 40.4404H29.8175L35.9437 51.0516L42.0699 40.4404H45.7449ZM66.5818 44.6849V48.1123C66.2281 48.0097 65.8531 47.939 65.4499 47.939C63.3949 47.939 61.9128 49.3538 61.9128 51.4761V56.7109H58.7295V44.6849H61.9128V47.939C61.9128 46.1422 64.0033 44.6849 66.5818 44.6849Z" fill="#6A2056"/>
</svg>
