<svg width="100" height="100" viewBox="0 0 100 100" fill="none" xmlns="http://www.w3.org/2000/svg">
<path d="M88.1498 76.2782C83.6728 77.2893 79.4579 79.2291 75.7779 81.9719C70.1006 85.535 63.9667 88.3124 57.5435 90.2282C56.756 91.1475 55.6671 91.7567 54.4717 91.9469C47.7919 92.8971 41.0671 93.4989 34.3248 93.7501C30.6904 93.7782 28.4623 92.8126 27.8435 91.3251C27.5887 90.7226 27.4566 90.0754 27.4551 89.4213C27.4535 88.7672 27.5826 88.1193 27.8346 87.5157C28.0866 86.9121 28.4566 86.3649 28.9228 85.906C29.3891 85.4472 29.9422 85.0861 30.5498 84.8438C29.9817 84.4953 29.4444 84.0991 28.9435 83.6594C28.4092 83.1251 27.8435 82.0532 27.6748 82.4469C26.9717 84.1657 26.6029 88.3657 24.7154 90.2594C22.1217 92.8813 17.2154 92.0063 14.3154 90.4844C11.131 88.7938 14.5404 84.8188 14.5404 84.8188C14.2675 84.9572 13.9694 85.0393 13.6641 85.0602C13.3588 85.0811 13.0524 85.0403 12.7631 84.9403C12.4739 84.8402 12.2077 84.6831 11.9805 84.478C11.7532 84.273 11.5696 84.0244 11.4404 83.7469C9.78079 80.9759 9.05046 77.7469 9.35604 74.5313C10.1567 71.006 12.0735 67.8332 14.8217 65.4844C14.3888 60.8024 15.0943 56.085 16.8779 51.7344C19.2337 47.1992 22.6215 43.2805 26.7685 40.2938C26.7685 40.2938 20.7123 33.5844 22.9685 27.5532C24.4342 23.6094 25.0248 23.6376 25.506 23.4657C27.2076 22.9412 28.762 22.0237 30.0435 20.7876C31.7677 18.8893 33.9118 17.4204 36.3046 16.498C38.6973 15.5756 41.2726 15.2253 43.8248 15.4751C43.8248 15.4751 47.4998 4.37506 50.8654 6.53131C52.7273 9.38909 54.3306 12.4073 55.656 15.5501C55.656 15.5501 59.6592 13.2126 60.1092 14.0844C62.4109 20.1989 62.9765 26.8309 61.7435 33.2469C60.2888 39.4043 57.5168 45.1731 53.6185 50.1563C53.1967 50.8594 58.4654 53.0876 61.7904 62.3032C64.8623 70.7407 62.1279 77.8032 62.6092 78.5907C62.6935 78.7313 62.7217 78.7876 62.7217 78.7876C62.7217 78.7876 66.2435 79.0688 73.3185 74.7001C77.2329 71.841 81.8551 70.1076 86.6842 69.6876C87.5504 69.5146 88.4498 69.6878 89.1899 70.17C89.9299 70.6522 90.4517 71.405 90.6434 72.2673C90.835 73.1295 90.6813 74.0326 90.2152 74.7829C89.7491 75.5332 89.0077 76.0679 88.1498 76.2782Z" fill="#2188B6"/>
</svg>
